<mxfile host="app.diagrams.net" modified="2022-03-30T19:10:08.042Z" agent="5.0 (Windows NT 10.0; Win64; x64) AppleWebKit/537.36 (KHTML, like Gecko) Chrome/99.0.4844.74 Safari/537.36 Edg/99.0.1150.55" etag="WVfcpSAG5Y-REbj_JvId" version="17.2.6" type="github">
  <diagram id="LJ_1WeQ_WVAs8RRzziaY" name="Page-1">
    <mxGraphModel dx="1038" dy="579" grid="1" gridSize="10" guides="1" tooltips="1" connect="1" arrows="1" fold="1" page="1" pageScale="1" pageWidth="4681" pageHeight="3300" math="0" shadow="0">
      <root>
        <mxCell id="0" />
        <mxCell id="1" parent="0" />
        <mxCell id="lTQVsCQpXb44fQlqmLNo-224" value="" style="shape=cube;whiteSpace=wrap;html=1;boundedLbl=1;backgroundOutline=1;darkOpacity=0.05;darkOpacity2=0.1;fontSize=16;strokeColor=#6c8ebf;strokeWidth=1;fillColor=#dae8fc;gradientDirection=north;size=10;" vertex="1" parent="1">
          <mxGeometry x="1056.01" y="200" width="513.99" height="440" as="geometry" />
        </mxCell>
        <mxCell id="lTQVsCQpXb44fQlqmLNo-43" value="" style="strokeWidth=1;html=1;shape=mxgraph.flowchart.direct_data;whiteSpace=wrap;fontSize=16;fillColor=#FFE98F;strokeColor=#6c8ebf;rotation=45;" vertex="1" parent="1">
          <mxGeometry x="480" y="454.5" width="90" height="20" as="geometry" />
        </mxCell>
        <mxCell id="lTQVsCQpXb44fQlqmLNo-42" value="" style="strokeWidth=1;html=1;shape=mxgraph.flowchart.direct_data;whiteSpace=wrap;fontSize=16;fillColor=#FFE98F;strokeColor=#6c8ebf;rotation=45;" vertex="1" parent="1">
          <mxGeometry x="480" y="434.5" width="90" height="20" as="geometry" />
        </mxCell>
        <mxCell id="lTQVsCQpXb44fQlqmLNo-63" style="edgeStyle=orthogonalEdgeStyle;rounded=0;orthogonalLoop=1;jettySize=auto;html=1;exitX=0.91;exitY=0;exitDx=0;exitDy=0;exitPerimeter=0;fontSize=16;" edge="1" parent="1" source="lTQVsCQpXb44fQlqmLNo-40" target="lTQVsCQpXb44fQlqmLNo-59">
          <mxGeometry relative="1" as="geometry" />
        </mxCell>
        <mxCell id="lTQVsCQpXb44fQlqmLNo-40" value="" style="strokeWidth=1;html=1;shape=mxgraph.flowchart.direct_data;whiteSpace=wrap;fontSize=16;fillColor=#FFE98F;strokeColor=#6c8ebf;rotation=45;" vertex="1" parent="1">
          <mxGeometry x="480" y="414.5" width="90" height="20" as="geometry" />
        </mxCell>
        <mxCell id="lTQVsCQpXb44fQlqmLNo-64" style="edgeStyle=orthogonalEdgeStyle;rounded=0;orthogonalLoop=1;jettySize=auto;html=1;exitX=0.91;exitY=0;exitDx=0;exitDy=0;exitPerimeter=0;entryX=0;entryY=0.721;entryDx=0;entryDy=0;entryPerimeter=0;fontSize=16;" edge="1" parent="1" source="lTQVsCQpXb44fQlqmLNo-37" target="lTQVsCQpXb44fQlqmLNo-60">
          <mxGeometry relative="1" as="geometry" />
        </mxCell>
        <mxCell id="lTQVsCQpXb44fQlqmLNo-37" value="" style="strokeWidth=1;html=1;shape=mxgraph.flowchart.direct_data;whiteSpace=wrap;fontSize=16;fillColor=#90ADF0;strokeColor=#6c8ebf;rotation=45;" vertex="1" parent="1">
          <mxGeometry x="440" y="493.5" width="90" height="20" as="geometry" />
        </mxCell>
        <mxCell id="lTQVsCQpXb44fQlqmLNo-36" value="" style="strokeWidth=1;html=1;shape=mxgraph.flowchart.direct_data;whiteSpace=wrap;fontSize=16;fillColor=#90ADF0;strokeColor=#6c8ebf;rotation=45;" vertex="1" parent="1">
          <mxGeometry x="420" y="493.5" width="90" height="20" as="geometry" />
        </mxCell>
        <mxCell id="lTQVsCQpXb44fQlqmLNo-35" value="" style="strokeWidth=1;html=1;shape=mxgraph.flowchart.direct_data;whiteSpace=wrap;fontSize=16;fillColor=#90ADF0;strokeColor=#6c8ebf;rotation=45;" vertex="1" parent="1">
          <mxGeometry x="400" y="493.5" width="90" height="20" as="geometry" />
        </mxCell>
        <mxCell id="lTQVsCQpXb44fQlqmLNo-34" value="" style="strokeWidth=1;html=1;shape=mxgraph.flowchart.direct_data;whiteSpace=wrap;fontSize=16;fillColor=#90ADF0;strokeColor=#6c8ebf;rotation=45;" vertex="1" parent="1">
          <mxGeometry x="380" y="493.5" width="90" height="20" as="geometry" />
        </mxCell>
        <mxCell id="lTQVsCQpXb44fQlqmLNo-33" value="" style="strokeWidth=1;html=1;shape=mxgraph.flowchart.direct_data;whiteSpace=wrap;fontSize=16;fillColor=#90ADF0;strokeColor=#6c8ebf;rotation=45;" vertex="1" parent="1">
          <mxGeometry x="360" y="493.5" width="90" height="20" as="geometry" />
        </mxCell>
        <mxCell id="lTQVsCQpXb44fQlqmLNo-58" value="" style="edgeStyle=orthogonalEdgeStyle;rounded=0;orthogonalLoop=1;jettySize=auto;html=1;fontSize=16;entryX=0.025;entryY=0.706;entryDx=0;entryDy=0;entryPerimeter=0;" edge="1" parent="1" source="lTQVsCQpXb44fQlqmLNo-1" target="lTQVsCQpXb44fQlqmLNo-2">
          <mxGeometry relative="1" as="geometry">
            <mxPoint x="330" y="453.5" as="targetPoint" />
          </mxGeometry>
        </mxCell>
        <mxCell id="lTQVsCQpXb44fQlqmLNo-1" value="Encoder" style="shape=cube;whiteSpace=wrap;html=1;boundedLbl=1;backgroundOutline=1;darkOpacity=0.05;darkOpacity2=0.1;size=10;fillColor=#b0e3e6;strokeColor=#0e8088;" vertex="1" parent="1">
          <mxGeometry x="250" y="394.5" width="60" height="110" as="geometry" />
        </mxCell>
        <mxCell id="lTQVsCQpXb44fQlqmLNo-29" value="" style="strokeWidth=1;html=1;shape=mxgraph.flowchart.direct_data;whiteSpace=wrap;fontSize=16;fillColor=#90ADF0;strokeColor=#6c8ebf;rotation=45;" vertex="1" parent="1">
          <mxGeometry x="340" y="493.5" width="90" height="20" as="geometry" />
        </mxCell>
        <mxCell id="lTQVsCQpXb44fQlqmLNo-39" value="" style="strokeWidth=1;html=1;shape=mxgraph.flowchart.direct_data;whiteSpace=wrap;fontSize=16;fillColor=#FFE98F;strokeColor=#6c8ebf;rotation=45;" vertex="1" parent="1">
          <mxGeometry x="480" y="394.5" width="90" height="20" as="geometry" />
        </mxCell>
        <mxCell id="lTQVsCQpXb44fQlqmLNo-30" value="" style="strokeWidth=1;html=1;shape=mxgraph.flowchart.direct_data;whiteSpace=wrap;fontSize=16;fillColor=#90ADF0;strokeColor=#6c8ebf;rotation=45;" vertex="1" parent="1">
          <mxGeometry x="320" y="493.5" width="90" height="20" as="geometry" />
        </mxCell>
        <mxCell id="lTQVsCQpXb44fQlqmLNo-2" value="&lt;i&gt;&lt;b&gt;&lt;font style=&quot;font-size: 16px&quot;&gt;F&lt;/font&gt;&lt;/b&gt;&lt;/i&gt;" style="shape=cube;whiteSpace=wrap;html=1;boundedLbl=1;backgroundOutline=1;darkOpacity=0.05;darkOpacity2=0.1;size=40;fillColor=#90ADF0;strokeColor=default;gradientColor=#FFE98F;gradientDirection=east;" vertex="1" parent="1">
          <mxGeometry x="330" y="364.5" width="190" height="135.5" as="geometry" />
        </mxCell>
        <mxCell id="lTQVsCQpXb44fQlqmLNo-51" value="" style="endArrow=classic;html=1;rounded=0;fontSize=16;exitX=0;exitY=0;exitDx=0;exitDy=0;exitPerimeter=0;dashed=1;" edge="1" parent="1">
          <mxGeometry width="50" height="50" relative="1" as="geometry">
            <mxPoint x="338" y="372.5" as="sourcePoint" />
            <mxPoint x="498" y="372.5" as="targetPoint" />
          </mxGeometry>
        </mxCell>
        <mxCell id="lTQVsCQpXb44fQlqmLNo-52" value="" style="endArrow=classic;html=1;rounded=0;fontSize=16;exitX=0;exitY=0;exitDx=0;exitDy=0;exitPerimeter=0;dashed=1;" edge="1" parent="1">
          <mxGeometry width="50" height="50" relative="1" as="geometry">
            <mxPoint x="348" y="382.5" as="sourcePoint" />
            <mxPoint x="508" y="382.5" as="targetPoint" />
          </mxGeometry>
        </mxCell>
        <mxCell id="lTQVsCQpXb44fQlqmLNo-53" value="" style="endArrow=classic;html=1;rounded=0;fontSize=16;exitX=0;exitY=0;exitDx=0;exitDy=0;exitPerimeter=0;dashed=1;" edge="1" parent="1">
          <mxGeometry width="50" height="50" relative="1" as="geometry">
            <mxPoint x="358" y="392.5" as="sourcePoint" />
            <mxPoint x="518" y="392.5" as="targetPoint" />
          </mxGeometry>
        </mxCell>
        <mxCell id="lTQVsCQpXb44fQlqmLNo-54" value="" style="endArrow=classic;html=1;rounded=0;fontSize=16;exitX=0;exitY=0;exitDx=0;exitDy=0;exitPerimeter=0;dashed=1;entryX=0;entryY=0.825;entryDx=0;entryDy=0;entryPerimeter=0;" edge="1" parent="1">
          <mxGeometry width="50" height="50" relative="1" as="geometry">
            <mxPoint x="338" y="372.5" as="sourcePoint" />
            <mxPoint x="338" y="471.5" as="targetPoint" />
          </mxGeometry>
        </mxCell>
        <mxCell id="lTQVsCQpXb44fQlqmLNo-56" value="" style="endArrow=classic;html=1;rounded=0;fontSize=16;exitX=0;exitY=0;exitDx=0;exitDy=0;exitPerimeter=0;dashed=1;entryX=0;entryY=0.825;entryDx=0;entryDy=0;entryPerimeter=0;" edge="1" parent="1">
          <mxGeometry width="50" height="50" relative="1" as="geometry">
            <mxPoint x="348" y="382.5" as="sourcePoint" />
            <mxPoint x="348" y="481.5" as="targetPoint" />
          </mxGeometry>
        </mxCell>
        <mxCell id="lTQVsCQpXb44fQlqmLNo-57" value="" style="endArrow=classic;html=1;rounded=0;fontSize=16;exitX=0;exitY=0;exitDx=0;exitDy=0;exitPerimeter=0;dashed=1;entryX=0;entryY=0.825;entryDx=0;entryDy=0;entryPerimeter=0;" edge="1" parent="1">
          <mxGeometry width="50" height="50" relative="1" as="geometry">
            <mxPoint x="358" y="392.5" as="sourcePoint" />
            <mxPoint x="358" y="491.5" as="targetPoint" />
          </mxGeometry>
        </mxCell>
        <mxCell id="lTQVsCQpXb44fQlqmLNo-86" style="edgeStyle=orthogonalEdgeStyle;rounded=0;orthogonalLoop=1;jettySize=auto;html=1;exitX=1.027;exitY=0.498;exitDx=0;exitDy=0;exitPerimeter=0;fontSize=16;" edge="1" parent="1" source="lTQVsCQpXb44fQlqmLNo-59" target="lTQVsCQpXb44fQlqmLNo-65">
          <mxGeometry relative="1" as="geometry" />
        </mxCell>
        <mxCell id="lTQVsCQpXb44fQlqmLNo-59" value="Graph&lt;br&gt;module" style="shape=cube;whiteSpace=wrap;html=1;boundedLbl=1;backgroundOutline=1;darkOpacity=0.05;darkOpacity2=0.1;size=10;fillColor=#b0e3e6;strokeColor=#0e8088;" vertex="1" parent="1">
          <mxGeometry x="610" y="284.5" width="60" height="110" as="geometry" />
        </mxCell>
        <mxCell id="lTQVsCQpXb44fQlqmLNo-88" value="" style="edgeStyle=orthogonalEdgeStyle;rounded=0;orthogonalLoop=1;jettySize=auto;html=1;fontSize=16;entryX=0.008;entryY=0.458;entryDx=0;entryDy=0;entryPerimeter=0;" edge="1" parent="1" source="lTQVsCQpXb44fQlqmLNo-60">
          <mxGeometry relative="1" as="geometry">
            <mxPoint x="722.9899999999998" y="498.50200000000007" as="targetPoint" />
          </mxGeometry>
        </mxCell>
        <mxCell id="lTQVsCQpXb44fQlqmLNo-60" value="Graph&lt;br&gt;module" style="shape=cube;whiteSpace=wrap;html=1;boundedLbl=1;backgroundOutline=1;darkOpacity=0.05;darkOpacity2=0.1;size=10;fillColor=#b0e3e6;strokeColor=#0e8088;" vertex="1" parent="1">
          <mxGeometry x="610" y="443.5" width="60" height="110" as="geometry" />
        </mxCell>
        <mxCell id="lTQVsCQpXb44fQlqmLNo-65" value="" style="rounded=1;whiteSpace=wrap;html=1;fontSize=16;strokeWidth=1;gradientDirection=east;dashed=1;" vertex="1" parent="1">
          <mxGeometry x="722.03" y="280" width="120" height="119" as="geometry" />
        </mxCell>
        <mxCell id="lTQVsCQpXb44fQlqmLNo-69" value="" style="shape=cylinder3;whiteSpace=wrap;html=1;boundedLbl=1;backgroundOutline=1;size=10.868369965309228;fontSize=16;strokeColor=default;strokeWidth=1;fillColor=#FFE98F;gradientColor=#FFE98F;gradientDirection=east;rotation=135;" vertex="1" parent="1">
          <mxGeometry x="747.68" y="340.14" width="22.03" height="47.02" as="geometry" />
        </mxCell>
        <mxCell id="lTQVsCQpXb44fQlqmLNo-71" value="" style="shape=cylinder3;whiteSpace=wrap;html=1;boundedLbl=1;backgroundOutline=1;size=10.868369965309228;fontSize=16;strokeColor=default;strokeWidth=1;fillColor=#FFE98F;gradientColor=#FFE98F;gradientDirection=east;rotation=135;" vertex="1" parent="1">
          <mxGeometry x="748.03" y="294.94" width="22.03" height="46.04" as="geometry" />
        </mxCell>
        <mxCell id="lTQVsCQpXb44fQlqmLNo-72" value="" style="shape=cylinder3;whiteSpace=wrap;html=1;boundedLbl=1;backgroundOutline=1;size=10.868369965309228;fontSize=16;strokeColor=default;strokeWidth=1;fillColor=#FFE98F;gradientColor=#FFE98F;gradientDirection=east;rotation=135;" vertex="1" parent="1">
          <mxGeometry x="798.03" y="340.98" width="22.03" height="46.04" as="geometry" />
        </mxCell>
        <mxCell id="lTQVsCQpXb44fQlqmLNo-73" value="" style="shape=cylinder3;whiteSpace=wrap;html=1;boundedLbl=1;backgroundOutline=1;size=10.868369965309228;fontSize=16;strokeColor=default;strokeWidth=1;fillColor=#FFE98F;gradientColor=#FFE98F;gradientDirection=east;rotation=135;" vertex="1" parent="1">
          <mxGeometry x="798.03" y="294.94" width="22.03" height="46.04" as="geometry" />
        </mxCell>
        <mxCell id="lTQVsCQpXb44fQlqmLNo-89" value="max&lt;sub&gt;t&lt;/sub&gt;(abs(&lt;i&gt;&lt;b&gt;F&lt;/b&gt;&lt;/i&gt;))" style="text;html=1;strokeColor=none;fillColor=none;align=center;verticalAlign=middle;whiteSpace=wrap;rounded=0;fontSize=16;" vertex="1" parent="1">
          <mxGeometry x="420" y="334.5" width="110" height="30" as="geometry" />
        </mxCell>
        <mxCell id="lTQVsCQpXb44fQlqmLNo-90" value="max&lt;span style=&quot;font-size: 13.3333px&quot;&gt;&lt;sub&gt;s&lt;/sub&gt;&lt;/span&gt;(abs(&lt;i&gt;&lt;b&gt;F&lt;/b&gt;&lt;/i&gt;))" style="text;html=1;strokeColor=none;fillColor=none;align=center;verticalAlign=middle;whiteSpace=wrap;rounded=0;fontSize=16;" vertex="1" parent="1">
          <mxGeometry x="390" y="543.5" width="110" height="30" as="geometry" />
        </mxCell>
        <mxCell id="lTQVsCQpXb44fQlqmLNo-91" value="&lt;i&gt;G&lt;sub&gt;s&lt;/sub&gt;&lt;/i&gt;" style="text;html=1;strokeColor=none;fillColor=none;align=center;verticalAlign=middle;whiteSpace=wrap;rounded=0;fontSize=16;" vertex="1" parent="1">
          <mxGeometry x="752.03" y="250" width="60" height="30" as="geometry" />
        </mxCell>
        <mxCell id="lTQVsCQpXb44fQlqmLNo-93" value="&lt;i&gt;G&lt;span style=&quot;font-size: 13.3333px&quot;&gt;&lt;sub&gt;t&lt;/sub&gt;&lt;/span&gt;&lt;/i&gt;" style="text;html=1;strokeColor=none;fillColor=none;align=center;verticalAlign=middle;whiteSpace=wrap;rounded=0;fontSize=16;" vertex="1" parent="1">
          <mxGeometry x="752.03" y="414.5" width="60" height="30" as="geometry" />
        </mxCell>
        <mxCell id="lTQVsCQpXb44fQlqmLNo-94" value="" style="endArrow=classic;html=1;rounded=0;fontSize=16;exitX=0.145;exitY=0;exitDx=0;exitDy=3.1518272899396758;exitPerimeter=0;entryX=0.883;entryY=0.39;entryDx=0;entryDy=0;entryPerimeter=0;" edge="1" parent="1" source="lTQVsCQpXb44fQlqmLNo-71" target="lTQVsCQpXb44fQlqmLNo-73">
          <mxGeometry width="50" height="50" relative="1" as="geometry">
            <mxPoint x="720" y="433.5" as="sourcePoint" />
            <mxPoint x="770" y="383.5" as="targetPoint" />
          </mxGeometry>
        </mxCell>
        <mxCell id="lTQVsCQpXb44fQlqmLNo-95" value="" style="endArrow=classic;html=1;rounded=0;fontSize=16;exitX=1;exitY=0;exitDx=0;exitDy=10.868369965309228;exitPerimeter=0;entryX=0.498;entryY=0.459;entryDx=0;entryDy=0;entryPerimeter=0;" edge="1" parent="1" source="lTQVsCQpXb44fQlqmLNo-71" target="lTQVsCQpXb44fQlqmLNo-69">
          <mxGeometry width="50" height="50" relative="1" as="geometry">
            <mxPoint x="720" y="443.5" as="sourcePoint" />
            <mxPoint x="760" y="363.5" as="targetPoint" />
          </mxGeometry>
        </mxCell>
        <mxCell id="lTQVsCQpXb44fQlqmLNo-98" value="" style="endArrow=classic;html=1;rounded=0;fontSize=16;exitX=0.023;exitY=0.149;exitDx=0;exitDy=0;exitPerimeter=0;entryX=0.601;entryY=0.416;entryDx=0;entryDy=0;entryPerimeter=0;" edge="1" parent="1" source="lTQVsCQpXb44fQlqmLNo-69" target="lTQVsCQpXb44fQlqmLNo-72">
          <mxGeometry width="50" height="50" relative="1" as="geometry">
            <mxPoint x="720" y="443.5" as="sourcePoint" />
            <mxPoint x="770" y="393.5" as="targetPoint" />
          </mxGeometry>
        </mxCell>
        <mxCell id="lTQVsCQpXb44fQlqmLNo-99" value="" style="endArrow=classic;html=1;rounded=0;fontSize=16;exitX=0.855;exitY=0;exitDx=0;exitDy=3.1518272899396758;exitPerimeter=0;" edge="1" parent="1" source="lTQVsCQpXb44fQlqmLNo-73">
          <mxGeometry width="50" height="50" relative="1" as="geometry">
            <mxPoint x="720" y="443.5" as="sourcePoint" />
            <mxPoint x="818" y="363.5" as="targetPoint" />
          </mxGeometry>
        </mxCell>
        <mxCell id="lTQVsCQpXb44fQlqmLNo-100" value="" style="endArrow=classic;html=1;rounded=0;fontSize=16;exitX=1;exitY=0;exitDx=0;exitDy=10.868369965309228;exitPerimeter=0;entryX=0;entryY=0;entryDx=0;entryDy=10.868369965309228;entryPerimeter=0;" edge="1" parent="1" source="lTQVsCQpXb44fQlqmLNo-73" target="lTQVsCQpXb44fQlqmLNo-69">
          <mxGeometry width="50" height="50" relative="1" as="geometry">
            <mxPoint x="720" y="443.5" as="sourcePoint" />
            <mxPoint x="770" y="393.5" as="targetPoint" />
          </mxGeometry>
        </mxCell>
        <mxCell id="lTQVsCQpXb44fQlqmLNo-101" value="" style="endArrow=classic;html=1;rounded=0;fontSize=16;exitX=0.5;exitY=0;exitDx=0;exitDy=0;exitPerimeter=0;entryX=0.447;entryY=0.453;entryDx=0;entryDy=0;entryPerimeter=0;" edge="1" parent="1" source="lTQVsCQpXb44fQlqmLNo-71" target="lTQVsCQpXb44fQlqmLNo-72">
          <mxGeometry width="50" height="50" relative="1" as="geometry">
            <mxPoint x="720" y="443.5" as="sourcePoint" />
            <mxPoint x="770" y="393.5" as="targetPoint" />
          </mxGeometry>
        </mxCell>
        <mxCell id="lTQVsCQpXb44fQlqmLNo-102" value="" style="rounded=1;whiteSpace=wrap;html=1;fontSize=16;strokeWidth=1;gradientDirection=east;dashed=1;" vertex="1" parent="1">
          <mxGeometry x="722.03" y="444.5" width="120" height="119" as="geometry" />
        </mxCell>
        <mxCell id="lTQVsCQpXb44fQlqmLNo-103" value="" style="shape=cylinder3;whiteSpace=wrap;html=1;boundedLbl=1;backgroundOutline=1;size=10.868369965309228;fontSize=16;strokeColor=#10739e;strokeWidth=1;fillColor=#90ADF0;gradientDirection=east;rotation=135;" vertex="1" parent="1">
          <mxGeometry x="747.68" y="504.64" width="22.03" height="47.02" as="geometry" />
        </mxCell>
        <mxCell id="lTQVsCQpXb44fQlqmLNo-104" value="" style="shape=cylinder3;whiteSpace=wrap;html=1;boundedLbl=1;backgroundOutline=1;size=10.868369965309228;fontSize=16;strokeColor=#10739e;strokeWidth=1;fillColor=#90ADF0;gradientDirection=east;rotation=135;" vertex="1" parent="1">
          <mxGeometry x="748.03" y="459.44" width="22.03" height="46.04" as="geometry" />
        </mxCell>
        <mxCell id="lTQVsCQpXb44fQlqmLNo-105" value="" style="shape=cylinder3;whiteSpace=wrap;html=1;boundedLbl=1;backgroundOutline=1;size=10.868369965309228;fontSize=16;strokeColor=#10739e;strokeWidth=1;fillColor=#90ADF0;gradientDirection=east;rotation=135;" vertex="1" parent="1">
          <mxGeometry x="798.03" y="505.48" width="22.03" height="46.04" as="geometry" />
        </mxCell>
        <mxCell id="lTQVsCQpXb44fQlqmLNo-106" value="" style="shape=cylinder3;whiteSpace=wrap;html=1;boundedLbl=1;backgroundOutline=1;size=10.868369965309228;fontSize=16;strokeColor=#10739e;strokeWidth=1;fillColor=#90ADF0;gradientDirection=east;rotation=135;" vertex="1" parent="1">
          <mxGeometry x="798.03" y="459.44" width="22.03" height="46.04" as="geometry" />
        </mxCell>
        <mxCell id="lTQVsCQpXb44fQlqmLNo-107" value="" style="endArrow=classic;html=1;rounded=0;fontSize=16;exitX=0.145;exitY=0;exitDx=0;exitDy=3.1518272899396758;exitPerimeter=0;entryX=0.883;entryY=0.39;entryDx=0;entryDy=0;entryPerimeter=0;" edge="1" parent="1" source="lTQVsCQpXb44fQlqmLNo-104" target="lTQVsCQpXb44fQlqmLNo-106">
          <mxGeometry width="50" height="50" relative="1" as="geometry">
            <mxPoint x="720" y="598" as="sourcePoint" />
            <mxPoint x="770" y="548" as="targetPoint" />
          </mxGeometry>
        </mxCell>
        <mxCell id="lTQVsCQpXb44fQlqmLNo-108" value="" style="endArrow=classic;html=1;rounded=0;fontSize=16;exitX=1;exitY=0;exitDx=0;exitDy=10.868369965309228;exitPerimeter=0;entryX=0.498;entryY=0.459;entryDx=0;entryDy=0;entryPerimeter=0;" edge="1" parent="1" source="lTQVsCQpXb44fQlqmLNo-104" target="lTQVsCQpXb44fQlqmLNo-103">
          <mxGeometry width="50" height="50" relative="1" as="geometry">
            <mxPoint x="720" y="608" as="sourcePoint" />
            <mxPoint x="760" y="528" as="targetPoint" />
          </mxGeometry>
        </mxCell>
        <mxCell id="lTQVsCQpXb44fQlqmLNo-109" value="" style="endArrow=classic;html=1;rounded=0;fontSize=16;exitX=0.023;exitY=0.149;exitDx=0;exitDy=0;exitPerimeter=0;entryX=0.601;entryY=0.416;entryDx=0;entryDy=0;entryPerimeter=0;" edge="1" parent="1" source="lTQVsCQpXb44fQlqmLNo-103" target="lTQVsCQpXb44fQlqmLNo-105">
          <mxGeometry width="50" height="50" relative="1" as="geometry">
            <mxPoint x="720" y="608" as="sourcePoint" />
            <mxPoint x="770" y="558" as="targetPoint" />
          </mxGeometry>
        </mxCell>
        <mxCell id="lTQVsCQpXb44fQlqmLNo-110" value="" style="endArrow=classic;html=1;rounded=0;fontSize=16;exitX=0.855;exitY=0;exitDx=0;exitDy=3.1518272899396758;exitPerimeter=0;" edge="1" parent="1" source="lTQVsCQpXb44fQlqmLNo-106">
          <mxGeometry width="50" height="50" relative="1" as="geometry">
            <mxPoint x="720" y="608" as="sourcePoint" />
            <mxPoint x="818" y="528" as="targetPoint" />
          </mxGeometry>
        </mxCell>
        <mxCell id="lTQVsCQpXb44fQlqmLNo-111" value="" style="endArrow=classic;html=1;rounded=0;fontSize=16;exitX=1;exitY=0;exitDx=0;exitDy=10.868369965309228;exitPerimeter=0;entryX=0;entryY=0;entryDx=0;entryDy=10.868369965309228;entryPerimeter=0;" edge="1" parent="1" source="lTQVsCQpXb44fQlqmLNo-106" target="lTQVsCQpXb44fQlqmLNo-103">
          <mxGeometry width="50" height="50" relative="1" as="geometry">
            <mxPoint x="720" y="608" as="sourcePoint" />
            <mxPoint x="770" y="558" as="targetPoint" />
          </mxGeometry>
        </mxCell>
        <mxCell id="lTQVsCQpXb44fQlqmLNo-112" value="" style="endArrow=classic;html=1;rounded=0;fontSize=16;exitX=0.5;exitY=0;exitDx=0;exitDy=0;exitPerimeter=0;entryX=0.447;entryY=0.453;entryDx=0;entryDy=0;entryPerimeter=0;" edge="1" parent="1" source="lTQVsCQpXb44fQlqmLNo-104" target="lTQVsCQpXb44fQlqmLNo-105">
          <mxGeometry width="50" height="50" relative="1" as="geometry">
            <mxPoint x="720" y="608" as="sourcePoint" />
            <mxPoint x="770" y="558" as="targetPoint" />
          </mxGeometry>
        </mxCell>
        <mxCell id="lTQVsCQpXb44fQlqmLNo-113" value="" style="rounded=1;whiteSpace=wrap;html=1;fontSize=16;strokeWidth=1;gradientDirection=east;dashed=1;" vertex="1" parent="1">
          <mxGeometry x="910" y="260" width="130" height="329" as="geometry" />
        </mxCell>
        <mxCell id="lTQVsCQpXb44fQlqmLNo-114" value="" style="shape=cylinder3;whiteSpace=wrap;html=1;boundedLbl=1;backgroundOutline=1;size=10.868369965309228;fontSize=16;strokeColor=#10739e;strokeWidth=1;fillColor=#90ADF0;gradientDirection=east;rotation=135;" vertex="1" parent="1">
          <mxGeometry x="990" y="321.46" width="22.03" height="46.04" as="geometry" />
        </mxCell>
        <mxCell id="lTQVsCQpXb44fQlqmLNo-115" value="" style="shape=cylinder3;whiteSpace=wrap;html=1;boundedLbl=1;backgroundOutline=1;size=10.868369965309228;fontSize=16;strokeColor=#10739e;strokeWidth=1;fillColor=#90ADF0;gradientDirection=east;rotation=135;" vertex="1" parent="1">
          <mxGeometry x="990" y="384.48" width="22.03" height="46.04" as="geometry" />
        </mxCell>
        <mxCell id="lTQVsCQpXb44fQlqmLNo-116" value="" style="shape=cylinder3;whiteSpace=wrap;html=1;boundedLbl=1;backgroundOutline=1;size=10.868369965309228;fontSize=16;strokeColor=#10739e;strokeWidth=1;fillColor=#90ADF0;gradientDirection=east;rotation=135;" vertex="1" parent="1">
          <mxGeometry x="990" y="447.5" width="22.03" height="46.04" as="geometry" />
        </mxCell>
        <mxCell id="lTQVsCQpXb44fQlqmLNo-117" value="" style="shape=cylinder3;whiteSpace=wrap;html=1;boundedLbl=1;backgroundOutline=1;size=10.868369965309228;fontSize=16;strokeColor=#10739e;strokeWidth=1;fillColor=#90ADF0;gradientDirection=east;rotation=135;" vertex="1" parent="1">
          <mxGeometry x="990" y="510.46" width="22.03" height="46.04" as="geometry" />
        </mxCell>
        <mxCell id="lTQVsCQpXb44fQlqmLNo-118" value="" style="shape=cylinder3;whiteSpace=wrap;html=1;boundedLbl=1;backgroundOutline=1;size=10.868369965309228;fontSize=16;strokeColor=default;strokeWidth=1;fillColor=#FFE98F;gradientColor=#FFE98F;gradientDirection=east;rotation=135;" vertex="1" parent="1">
          <mxGeometry x="940" y="291.46" width="22.03" height="46.04" as="geometry" />
        </mxCell>
        <mxCell id="lTQVsCQpXb44fQlqmLNo-119" value="" style="shape=cylinder3;whiteSpace=wrap;html=1;boundedLbl=1;backgroundOutline=1;size=10.868369965309228;fontSize=16;strokeColor=default;strokeWidth=1;fillColor=#FFE98F;gradientColor=#FFE98F;gradientDirection=east;rotation=135;" vertex="1" parent="1">
          <mxGeometry x="940" y="351.46" width="22.03" height="46.04" as="geometry" />
        </mxCell>
        <mxCell id="lTQVsCQpXb44fQlqmLNo-120" value="" style="shape=cylinder3;whiteSpace=wrap;html=1;boundedLbl=1;backgroundOutline=1;size=10.868369965309228;fontSize=16;strokeColor=default;strokeWidth=1;fillColor=#FFE98F;gradientColor=#FFE98F;gradientDirection=east;rotation=135;" vertex="1" parent="1">
          <mxGeometry x="940" y="409.48" width="22.03" height="46.04" as="geometry" />
        </mxCell>
        <mxCell id="lTQVsCQpXb44fQlqmLNo-121" value="" style="shape=cylinder3;whiteSpace=wrap;html=1;boundedLbl=1;backgroundOutline=1;size=10.868369965309228;fontSize=16;strokeColor=default;strokeWidth=1;fillColor=#FFE98F;gradientColor=#FFE98F;gradientDirection=east;rotation=135;" vertex="1" parent="1">
          <mxGeometry x="940" y="470.46000000000004" width="22.03" height="46.04" as="geometry" />
        </mxCell>
        <mxCell id="lTQVsCQpXb44fQlqmLNo-124" value="" style="endArrow=classic;html=1;rounded=0;fontSize=16;exitX=1;exitY=0.5;exitDx=0;exitDy=0;entryX=-0.02;entryY=0.366;entryDx=0;entryDy=0;entryPerimeter=0;" edge="1" parent="1" source="lTQVsCQpXb44fQlqmLNo-65" target="lTQVsCQpXb44fQlqmLNo-113">
          <mxGeometry width="50" height="50" relative="1" as="geometry">
            <mxPoint x="800" y="480" as="sourcePoint" />
            <mxPoint x="850" y="430" as="targetPoint" />
          </mxGeometry>
        </mxCell>
        <mxCell id="lTQVsCQpXb44fQlqmLNo-125" value="" style="endArrow=classic;html=1;rounded=0;fontSize=16;exitX=1;exitY=0.5;exitDx=0;exitDy=0;entryX=-0.036;entryY=0.632;entryDx=0;entryDy=0;entryPerimeter=0;" edge="1" parent="1" source="lTQVsCQpXb44fQlqmLNo-102" target="lTQVsCQpXb44fQlqmLNo-113">
          <mxGeometry width="50" height="50" relative="1" as="geometry">
            <mxPoint x="800" y="480" as="sourcePoint" />
            <mxPoint x="850" y="430" as="targetPoint" />
          </mxGeometry>
        </mxCell>
        <mxCell id="lTQVsCQpXb44fQlqmLNo-128" value="" style="curved=1;endArrow=classic;html=1;rounded=0;fontSize=16;entryX=0.145;entryY=0;entryDx=0;entryDy=3.1518272899396758;entryPerimeter=0;startArrow=classicThin;startFill=1;" edge="1" parent="1" target="lTQVsCQpXb44fQlqmLNo-114">
          <mxGeometry width="50" height="50" relative="1" as="geometry">
            <mxPoint x="1020" y="543.5" as="sourcePoint" />
            <mxPoint x="1000" y="463.5" as="targetPoint" />
            <Array as="points">
              <mxPoint x="1040" y="420" />
            </Array>
          </mxGeometry>
        </mxCell>
        <mxCell id="lTQVsCQpXb44fQlqmLNo-129" value="" style="endArrow=classic;startArrow=classic;html=1;rounded=0;fontSize=16;exitX=1;exitY=0;exitDx=0;exitDy=16.944184982654612;exitPerimeter=0;entryX=0;entryY=0;entryDx=0;entryDy=10.868369965309228;entryPerimeter=0;" edge="1" parent="1" source="lTQVsCQpXb44fQlqmLNo-115" target="lTQVsCQpXb44fQlqmLNo-120">
          <mxGeometry width="50" height="50" relative="1" as="geometry">
            <mxPoint x="800" y="520" as="sourcePoint" />
            <mxPoint x="850" y="470" as="targetPoint" />
          </mxGeometry>
        </mxCell>
        <mxCell id="lTQVsCQpXb44fQlqmLNo-130" value="" style="endArrow=classic;startArrow=classic;html=1;rounded=0;fontSize=16;exitX=1;exitY=0;exitDx=0;exitDy=29.095815017345387;exitPerimeter=0;entryX=0.5;entryY=0;entryDx=0;entryDy=0;entryPerimeter=0;" edge="1" parent="1" source="lTQVsCQpXb44fQlqmLNo-117" target="lTQVsCQpXb44fQlqmLNo-121">
          <mxGeometry width="50" height="50" relative="1" as="geometry">
            <mxPoint x="800" y="520" as="sourcePoint" />
            <mxPoint x="1180" y="300" as="targetPoint" />
          </mxGeometry>
        </mxCell>
        <mxCell id="lTQVsCQpXb44fQlqmLNo-131" value="" style="endArrow=classic;startArrow=classic;html=1;rounded=0;fontSize=16;exitX=0.145;exitY=1;exitDx=0;exitDy=-3.1518272899396758;exitPerimeter=0;entryX=0.855;entryY=0;entryDx=0;entryDy=3.1518272899396758;entryPerimeter=0;" edge="1" parent="1" source="lTQVsCQpXb44fQlqmLNo-117" target="lTQVsCQpXb44fQlqmLNo-120">
          <mxGeometry width="50" height="50" relative="1" as="geometry">
            <mxPoint x="998.9299688052301" y="546.9725311947698" as="sourcePoint" />
            <mxPoint x="977.2925981029143" y="519.7575981029142" as="targetPoint" />
          </mxGeometry>
        </mxCell>
        <mxCell id="lTQVsCQpXb44fQlqmLNo-132" value="" style="endArrow=classic;startArrow=classic;html=1;rounded=0;fontSize=16;exitX=1;exitY=1;exitDx=0;exitDy=-10.868369965309228;exitPerimeter=0;entryX=0.145;entryY=0;entryDx=0;entryDy=3.1518272899396758;entryPerimeter=0;" edge="1" parent="1" source="lTQVsCQpXb44fQlqmLNo-116" target="lTQVsCQpXb44fQlqmLNo-121">
          <mxGeometry width="50" height="50" relative="1" as="geometry">
            <mxPoint x="1018.8037811947702" y="535.6912188052302" as="sourcePoint" />
            <mxPoint x="1003.2262188052305" y="488.3087811947696" as="targetPoint" />
          </mxGeometry>
        </mxCell>
        <mxCell id="lTQVsCQpXb44fQlqmLNo-133" value="" style="endArrow=classic;startArrow=classic;html=1;rounded=0;fontSize=16;exitX=0.5;exitY=1;exitDx=0;exitDy=0;exitPerimeter=0;entryX=0.5;entryY=0;entryDx=0;entryDy=0;entryPerimeter=0;" edge="1" parent="1" source="lTQVsCQpXb44fQlqmLNo-116" target="lTQVsCQpXb44fQlqmLNo-119">
          <mxGeometry width="50" height="50" relative="1" as="geometry">
            <mxPoint x="800" y="520" as="sourcePoint" />
            <mxPoint x="850" y="470" as="targetPoint" />
          </mxGeometry>
        </mxCell>
        <mxCell id="lTQVsCQpXb44fQlqmLNo-134" value="" style="endArrow=classic;startArrow=classic;html=1;rounded=0;fontSize=16;exitX=0.5;exitY=1;exitDx=0;exitDy=0;exitPerimeter=0;entryX=0.5;entryY=0;entryDx=0;entryDy=0;entryPerimeter=0;" edge="1" parent="1" source="lTQVsCQpXb44fQlqmLNo-115" target="lTQVsCQpXb44fQlqmLNo-118">
          <mxGeometry width="50" height="50" relative="1" as="geometry">
            <mxPoint x="800" y="520" as="sourcePoint" />
            <mxPoint x="850" y="470" as="targetPoint" />
          </mxGeometry>
        </mxCell>
        <mxCell id="lTQVsCQpXb44fQlqmLNo-135" value="" style="endArrow=classic;startArrow=classic;html=1;rounded=0;fontSize=16;exitX=0;exitY=0;exitDx=0;exitDy=10.868369965309228;exitPerimeter=0;entryX=0.855;entryY=1;entryDx=0;entryDy=-3.1518272899396758;entryPerimeter=0;" edge="1" parent="1" source="lTQVsCQpXb44fQlqmLNo-119" target="lTQVsCQpXb44fQlqmLNo-114">
          <mxGeometry width="50" height="50" relative="1" as="geometry">
            <mxPoint x="800" y="520" as="sourcePoint" />
            <mxPoint x="850" y="470" as="targetPoint" />
          </mxGeometry>
        </mxCell>
        <mxCell id="lTQVsCQpXb44fQlqmLNo-136" value="" style="curved=1;endArrow=classic;html=1;rounded=0;fontSize=16;entryX=0.5;entryY=1;entryDx=0;entryDy=0;entryPerimeter=0;startArrow=classicThin;startFill=1;exitX=0.855;exitY=1;exitDx=0;exitDy=-3.1518272899396758;exitPerimeter=0;" edge="1" parent="1" source="lTQVsCQpXb44fQlqmLNo-121" target="lTQVsCQpXb44fQlqmLNo-118">
          <mxGeometry width="50" height="50" relative="1" as="geometry">
            <mxPoint x="910" y="485.44" as="sourcePoint" />
            <mxPoint x="910.593954301356" y="294.9388850047828" as="targetPoint" />
            <Array as="points">
              <mxPoint x="910" y="362" />
            </Array>
          </mxGeometry>
        </mxCell>
        <mxCell id="lTQVsCQpXb44fQlqmLNo-139" value="" style="curved=1;endArrow=classic;html=1;rounded=0;fontSize=16;entryX=0.615;entryY=0.962;entryDx=0;entryDy=0;entryPerimeter=0;startArrow=classicThin;startFill=1;" edge="1" parent="1">
          <mxGeometry width="50" height="50" relative="1" as="geometry">
            <mxPoint x="940" y="413.5" as="sourcePoint" />
            <mxPoint x="934.1830796781101" y="358.2509190277041" as="targetPoint" />
            <Array as="points">
              <mxPoint x="940" y="413.5" />
              <mxPoint x="920" y="390" />
            </Array>
          </mxGeometry>
        </mxCell>
        <mxCell id="lTQVsCQpXb44fQlqmLNo-141" value="" style="curved=1;endArrow=classic;html=1;rounded=0;fontSize=16;entryX=0.615;entryY=0.962;entryDx=0;entryDy=0;entryPerimeter=0;startArrow=classicThin;startFill=1;" edge="1" parent="1">
          <mxGeometry width="50" height="50" relative="1" as="geometry">
            <mxPoint x="937.9999999999998" y="475.12" as="sourcePoint" />
            <mxPoint x="932.1830796781101" y="419.8709190277041" as="targetPoint" />
            <Array as="points">
              <mxPoint x="938" y="475.12" />
              <mxPoint x="918" y="451.62" />
            </Array>
          </mxGeometry>
        </mxCell>
        <mxCell id="lTQVsCQpXb44fQlqmLNo-142" value="" style="curved=1;endArrow=classic;html=1;rounded=0;fontSize=16;entryX=0.615;entryY=0.962;entryDx=0;entryDy=0;entryPerimeter=0;startArrow=classicThin;startFill=1;" edge="1" parent="1">
          <mxGeometry width="50" height="50" relative="1" as="geometry">
            <mxPoint x="936.9999999999998" y="357.5" as="sourcePoint" />
            <mxPoint x="931.1830796781101" y="302.2509190277041" as="targetPoint" />
            <Array as="points">
              <mxPoint x="937" y="357.5" />
              <mxPoint x="917" y="334" />
            </Array>
          </mxGeometry>
        </mxCell>
        <mxCell id="lTQVsCQpXb44fQlqmLNo-146" value="" style="curved=1;endArrow=classic;html=1;rounded=0;fontSize=16;startArrow=classicThin;startFill=1;entryX=0.145;entryY=0;entryDx=0;entryDy=3.1518272899396758;entryPerimeter=0;" edge="1" parent="1" target="lTQVsCQpXb44fQlqmLNo-114">
          <mxGeometry width="50" height="50" relative="1" as="geometry">
            <mxPoint x="1020" y="410" as="sourcePoint" />
            <mxPoint x="1000" y="360" as="targetPoint" />
            <Array as="points">
              <mxPoint x="1040" y="390" />
            </Array>
          </mxGeometry>
        </mxCell>
        <mxCell id="lTQVsCQpXb44fQlqmLNo-147" value="" style="curved=1;endArrow=classic;html=1;rounded=0;fontSize=16;startArrow=classicThin;startFill=1;entryX=0.145;entryY=0;entryDx=0;entryDy=3.1518272899396758;entryPerimeter=0;" edge="1" parent="1">
          <mxGeometry width="50" height="50" relative="1" as="geometry">
            <mxPoint x="1019" y="474" as="sourcePoint" />
            <mxPoint x="1019.5939543013558" y="416.99888500478255" as="targetPoint" />
            <Array as="points">
              <mxPoint x="1039" y="454" />
            </Array>
          </mxGeometry>
        </mxCell>
        <mxCell id="lTQVsCQpXb44fQlqmLNo-148" value="" style="curved=1;endArrow=classic;html=1;rounded=0;fontSize=16;startArrow=classicThin;startFill=1;entryX=0.145;entryY=0;entryDx=0;entryDy=3.1518272899396758;entryPerimeter=0;" edge="1" parent="1">
          <mxGeometry width="50" height="50" relative="1" as="geometry">
            <mxPoint x="1019" y="536" as="sourcePoint" />
            <mxPoint x="1019.593954301356" y="478.99888500478255" as="targetPoint" />
            <Array as="points">
              <mxPoint x="1039" y="516" />
            </Array>
          </mxGeometry>
        </mxCell>
        <mxCell id="lTQVsCQpXb44fQlqmLNo-149" value="" style="endArrow=classic;startArrow=classic;html=1;rounded=0;fontSize=16;exitX=0;exitY=0;exitDx=0;exitDy=10.868369965309228;exitPerimeter=0;entryX=0.25;entryY=0.993;entryDx=0;entryDy=0;entryPerimeter=0;" edge="1" parent="1" source="lTQVsCQpXb44fQlqmLNo-118" target="lTQVsCQpXb44fQlqmLNo-114">
          <mxGeometry width="50" height="50" relative="1" as="geometry">
            <mxPoint x="950" y="420" as="sourcePoint" />
            <mxPoint x="1000" y="370" as="targetPoint" />
          </mxGeometry>
        </mxCell>
        <mxCell id="lTQVsCQpXb44fQlqmLNo-150" value="&lt;i&gt;G&lt;sub&gt;st&lt;/sub&gt;&lt;/i&gt;" style="text;html=1;strokeColor=none;fillColor=none;align=center;verticalAlign=middle;whiteSpace=wrap;rounded=0;fontSize=16;" vertex="1" parent="1">
          <mxGeometry x="952.03" y="230" width="60" height="30" as="geometry" />
        </mxCell>
        <mxCell id="lTQVsCQpXb44fQlqmLNo-151" value="" style="rounded=1;whiteSpace=wrap;html=1;fontSize=16;strokeWidth=1;gradientDirection=east;dashed=1;" vertex="1" parent="1">
          <mxGeometry x="1090" y="230" width="380" height="171.5" as="geometry" />
        </mxCell>
        <mxCell id="lTQVsCQpXb44fQlqmLNo-152" value="" style="rounded=1;whiteSpace=wrap;html=1;fontSize=16;strokeWidth=1;gradientDirection=east;dashed=1;" vertex="1" parent="1">
          <mxGeometry x="1090" y="443.5" width="380" height="176.5" as="geometry" />
        </mxCell>
        <mxCell id="lTQVsCQpXb44fQlqmLNo-153" value="" style="rounded=1;whiteSpace=wrap;html=1;fontSize=16;strokeWidth=1;gradientDirection=east;dashed=1;" vertex="1" parent="1">
          <mxGeometry x="1110" y="260" width="230" height="50" as="geometry" />
        </mxCell>
        <mxCell id="lTQVsCQpXb44fQlqmLNo-154" value="" style="rounded=1;whiteSpace=wrap;html=1;fontSize=16;strokeWidth=1;gradientDirection=east;dashed=1;" vertex="1" parent="1">
          <mxGeometry x="1110" y="324.5" width="230" height="50" as="geometry" />
        </mxCell>
        <mxCell id="lTQVsCQpXb44fQlqmLNo-155" value="" style="rounded=1;whiteSpace=wrap;html=1;fontSize=16;strokeWidth=1;gradientDirection=east;dashed=1;" vertex="1" parent="1">
          <mxGeometry x="1110" y="474.5" width="230" height="50" as="geometry" />
        </mxCell>
        <mxCell id="lTQVsCQpXb44fQlqmLNo-156" value="" style="rounded=1;whiteSpace=wrap;html=1;fontSize=16;strokeWidth=1;gradientDirection=east;dashed=1;" vertex="1" parent="1">
          <mxGeometry x="1110" y="543.5" width="230" height="50" as="geometry" />
        </mxCell>
        <mxCell id="lTQVsCQpXb44fQlqmLNo-157" value="" style="shape=cylinder3;whiteSpace=wrap;html=1;boundedLbl=1;backgroundOutline=1;size=10.868369965309228;fontSize=16;strokeColor=default;strokeWidth=1;fillColor=#FFE98F;gradientColor=#FFE98F;gradientDirection=east;rotation=135;" vertex="1" parent="1">
          <mxGeometry x="1130" y="261.98" width="22.03" height="46.04" as="geometry" />
        </mxCell>
        <mxCell id="lTQVsCQpXb44fQlqmLNo-158" value="" style="shape=cylinder3;whiteSpace=wrap;html=1;boundedLbl=1;backgroundOutline=1;size=10.868369965309228;fontSize=16;strokeColor=default;strokeWidth=1;fillColor=#FFE98F;gradientColor=#FFE98F;gradientDirection=east;rotation=135;" vertex="1" parent="1">
          <mxGeometry x="1180" y="261.98" width="22.03" height="46.04" as="geometry" />
        </mxCell>
        <mxCell id="lTQVsCQpXb44fQlqmLNo-159" value="" style="shape=cylinder3;whiteSpace=wrap;html=1;boundedLbl=1;backgroundOutline=1;size=10.868369965309228;fontSize=16;strokeColor=default;strokeWidth=1;fillColor=#FFE98F;gradientColor=#FFE98F;gradientDirection=east;rotation=135;" vertex="1" parent="1">
          <mxGeometry x="1230" y="263.96000000000004" width="22.03" height="46.04" as="geometry" />
        </mxCell>
        <mxCell id="lTQVsCQpXb44fQlqmLNo-160" value="" style="shape=cylinder3;whiteSpace=wrap;html=1;boundedLbl=1;backgroundOutline=1;size=10.868369965309228;fontSize=16;strokeColor=default;strokeWidth=1;fillColor=#FFE98F;gradientColor=#FFE98F;gradientDirection=east;rotation=135;" vertex="1" parent="1">
          <mxGeometry x="1280" y="263.96000000000004" width="22.03" height="46.04" as="geometry" />
        </mxCell>
        <mxCell id="lTQVsCQpXb44fQlqmLNo-161" value="" style="shape=cylinder3;whiteSpace=wrap;html=1;boundedLbl=1;backgroundOutline=1;size=10.868369965309228;fontSize=16;strokeColor=default;strokeWidth=1;fillColor=#FFE98F;gradientColor=#FFE98F;gradientDirection=east;rotation=135;" vertex="1" parent="1">
          <mxGeometry x="1130" y="474.5" width="22.03" height="46.04" as="geometry" />
        </mxCell>
        <mxCell id="lTQVsCQpXb44fQlqmLNo-162" value="" style="shape=cylinder3;whiteSpace=wrap;html=1;boundedLbl=1;backgroundOutline=1;size=10.868369965309228;fontSize=16;strokeColor=default;strokeWidth=1;fillColor=#FFE98F;gradientColor=#FFE98F;gradientDirection=east;rotation=135;" vertex="1" parent="1">
          <mxGeometry x="1180" y="474.5" width="22.03" height="46.04" as="geometry" />
        </mxCell>
        <mxCell id="lTQVsCQpXb44fQlqmLNo-163" value="" style="shape=cylinder3;whiteSpace=wrap;html=1;boundedLbl=1;backgroundOutline=1;size=10.868369965309228;fontSize=16;strokeColor=default;strokeWidth=1;fillColor=#FFE98F;gradientColor=#FFE98F;gradientDirection=east;rotation=135;" vertex="1" parent="1">
          <mxGeometry x="1230" y="474.5" width="22.03" height="46.04" as="geometry" />
        </mxCell>
        <mxCell id="lTQVsCQpXb44fQlqmLNo-164" value="" style="shape=cylinder3;whiteSpace=wrap;html=1;boundedLbl=1;backgroundOutline=1;size=10.868369965309228;fontSize=16;strokeColor=default;strokeWidth=1;fillColor=#FFE98F;gradientColor=#FFE98F;gradientDirection=east;rotation=135;" vertex="1" parent="1">
          <mxGeometry x="1280" y="474.5" width="22.03" height="46.04" as="geometry" />
        </mxCell>
        <mxCell id="lTQVsCQpXb44fQlqmLNo-165" value="" style="shape=cylinder3;whiteSpace=wrap;html=1;boundedLbl=1;backgroundOutline=1;size=10.868369965309228;fontSize=16;strokeColor=#10739e;strokeWidth=1;fillColor=#90ADF0;gradientDirection=east;rotation=135;" vertex="1" parent="1">
          <mxGeometry x="1130" y="328.46000000000004" width="22.03" height="46.04" as="geometry" />
        </mxCell>
        <mxCell id="lTQVsCQpXb44fQlqmLNo-166" value="" style="shape=cylinder3;whiteSpace=wrap;html=1;boundedLbl=1;backgroundOutline=1;size=10.868369965309228;fontSize=16;strokeColor=#10739e;strokeWidth=1;fillColor=#90ADF0;gradientDirection=east;rotation=135;" vertex="1" parent="1">
          <mxGeometry x="1180" y="328.46000000000004" width="22.03" height="46.04" as="geometry" />
        </mxCell>
        <mxCell id="lTQVsCQpXb44fQlqmLNo-167" value="" style="shape=cylinder3;whiteSpace=wrap;html=1;boundedLbl=1;backgroundOutline=1;size=10.868369965309228;fontSize=16;strokeColor=#10739e;strokeWidth=1;fillColor=#90ADF0;gradientDirection=east;rotation=135;" vertex="1" parent="1">
          <mxGeometry x="1230" y="328.46000000000004" width="22.03" height="46.04" as="geometry" />
        </mxCell>
        <mxCell id="lTQVsCQpXb44fQlqmLNo-168" value="" style="shape=cylinder3;whiteSpace=wrap;html=1;boundedLbl=1;backgroundOutline=1;size=10.868369965309228;fontSize=16;strokeColor=#10739e;strokeWidth=1;fillColor=#90ADF0;gradientDirection=east;rotation=135;" vertex="1" parent="1">
          <mxGeometry x="1280" y="328.46000000000004" width="22.03" height="46.04" as="geometry" />
        </mxCell>
        <mxCell id="lTQVsCQpXb44fQlqmLNo-169" value="" style="shape=cylinder3;whiteSpace=wrap;html=1;boundedLbl=1;backgroundOutline=1;size=10.868369965309228;fontSize=16;strokeColor=#10739e;strokeWidth=1;fillColor=#90ADF0;gradientDirection=east;rotation=135;" vertex="1" parent="1">
          <mxGeometry x="1130" y="543.5" width="22.03" height="46.04" as="geometry" />
        </mxCell>
        <mxCell id="lTQVsCQpXb44fQlqmLNo-170" value="" style="shape=cylinder3;whiteSpace=wrap;html=1;boundedLbl=1;backgroundOutline=1;size=10.868369965309228;fontSize=16;strokeColor=#10739e;strokeWidth=1;fillColor=#90ADF0;gradientDirection=east;rotation=135;" vertex="1" parent="1">
          <mxGeometry x="1180" y="543.5" width="22.03" height="46.04" as="geometry" />
        </mxCell>
        <mxCell id="lTQVsCQpXb44fQlqmLNo-171" value="" style="shape=cylinder3;whiteSpace=wrap;html=1;boundedLbl=1;backgroundOutline=1;size=10.868369965309228;fontSize=16;strokeColor=#10739e;strokeWidth=1;fillColor=#90ADF0;gradientDirection=east;rotation=135;" vertex="1" parent="1">
          <mxGeometry x="1230" y="543.5" width="22.03" height="46.04" as="geometry" />
        </mxCell>
        <mxCell id="lTQVsCQpXb44fQlqmLNo-172" value="" style="shape=cylinder3;whiteSpace=wrap;html=1;boundedLbl=1;backgroundOutline=1;size=10.868369965309228;fontSize=16;strokeColor=#10739e;strokeWidth=1;fillColor=#90ADF0;gradientDirection=east;rotation=135;" vertex="1" parent="1">
          <mxGeometry x="1280" y="543.5" width="22.03" height="46.04" as="geometry" />
        </mxCell>
        <mxCell id="lTQVsCQpXb44fQlqmLNo-173" value="" style="endArrow=classic;startArrow=classic;html=1;rounded=0;fontSize=16;exitX=0.145;exitY=0;exitDx=0;exitDy=3.1518272899396758;exitPerimeter=0;entryX=0.831;entryY=0.412;entryDx=0;entryDy=0;entryPerimeter=0;" edge="1" parent="1" source="lTQVsCQpXb44fQlqmLNo-157" target="lTQVsCQpXb44fQlqmLNo-158">
          <mxGeometry width="50" height="50" relative="1" as="geometry">
            <mxPoint x="1160" y="370" as="sourcePoint" />
            <mxPoint x="1210" y="320" as="targetPoint" />
          </mxGeometry>
        </mxCell>
        <mxCell id="lTQVsCQpXb44fQlqmLNo-174" value="" style="endArrow=classic;startArrow=classic;html=1;rounded=0;fontSize=16;exitX=0.145;exitY=0;exitDx=0;exitDy=3.1518272899396758;exitPerimeter=0;entryX=0.831;entryY=0.412;entryDx=0;entryDy=0;entryPerimeter=0;" edge="1" parent="1">
          <mxGeometry width="50" height="50" relative="1" as="geometry">
            <mxPoint x="1210.9339543013552" y="295.4388850047828" as="sourcePoint" />
            <mxPoint x="1239.0636841151747" y="294.9410304170506" as="targetPoint" />
          </mxGeometry>
        </mxCell>
        <mxCell id="lTQVsCQpXb44fQlqmLNo-175" value="" style="endArrow=classic;startArrow=classic;html=1;rounded=0;fontSize=16;exitX=0.145;exitY=0;exitDx=0;exitDy=3.1518272899396758;exitPerimeter=0;entryX=0.831;entryY=0.412;entryDx=0;entryDy=0;entryPerimeter=0;" edge="1" parent="1">
          <mxGeometry width="50" height="50" relative="1" as="geometry">
            <mxPoint x="1260.0039543013554" y="294.71888500478275" as="sourcePoint" />
            <mxPoint x="1288.133684115175" y="294.2210304170506" as="targetPoint" />
          </mxGeometry>
        </mxCell>
        <mxCell id="lTQVsCQpXb44fQlqmLNo-176" value="" style="endArrow=classic;startArrow=classic;html=1;rounded=0;fontSize=16;exitX=0.145;exitY=0;exitDx=0;exitDy=3.1518272899396758;exitPerimeter=0;entryX=0.831;entryY=0.412;entryDx=0;entryDy=0;entryPerimeter=0;" edge="1" parent="1">
          <mxGeometry width="50" height="50" relative="1" as="geometry">
            <mxPoint x="1210.9339543013555" y="360.4988850047828" as="sourcePoint" />
            <mxPoint x="1239.063684115175" y="360.00103041705063" as="targetPoint" />
          </mxGeometry>
        </mxCell>
        <mxCell id="lTQVsCQpXb44fQlqmLNo-177" value="" style="endArrow=classic;startArrow=classic;html=1;rounded=0;fontSize=16;exitX=0.145;exitY=0;exitDx=0;exitDy=3.1518272899396758;exitPerimeter=0;entryX=0.831;entryY=0.412;entryDx=0;entryDy=0;entryPerimeter=0;" edge="1" parent="1">
          <mxGeometry width="50" height="50" relative="1" as="geometry">
            <mxPoint x="1160.0039543013554" y="360.4988850047828" as="sourcePoint" />
            <mxPoint x="1188.1336841151751" y="360.00103041705063" as="targetPoint" />
          </mxGeometry>
        </mxCell>
        <mxCell id="lTQVsCQpXb44fQlqmLNo-178" value="" style="endArrow=classic;startArrow=classic;html=1;rounded=0;fontSize=16;exitX=0.145;exitY=0;exitDx=0;exitDy=3.1518272899396758;exitPerimeter=0;entryX=0.831;entryY=0.412;entryDx=0;entryDy=0;entryPerimeter=0;" edge="1" parent="1">
          <mxGeometry width="50" height="50" relative="1" as="geometry">
            <mxPoint x="1260.0039543013554" y="360.4988850047828" as="sourcePoint" />
            <mxPoint x="1288.1336841151751" y="360.00103041705063" as="targetPoint" />
          </mxGeometry>
        </mxCell>
        <mxCell id="lTQVsCQpXb44fQlqmLNo-179" value="" style="endArrow=classic;startArrow=classic;html=1;rounded=0;fontSize=16;exitX=0.145;exitY=0;exitDx=0;exitDy=3.1518272899396758;exitPerimeter=0;entryX=0.831;entryY=0.412;entryDx=0;entryDy=0;entryPerimeter=0;" edge="1" parent="1">
          <mxGeometry width="50" height="50" relative="1" as="geometry">
            <mxPoint x="1160.0039543013554" y="505.9788850047828" as="sourcePoint" />
            <mxPoint x="1188.1336841151751" y="505.48103041705065" as="targetPoint" />
          </mxGeometry>
        </mxCell>
        <mxCell id="lTQVsCQpXb44fQlqmLNo-180" value="" style="endArrow=classic;startArrow=classic;html=1;rounded=0;fontSize=16;exitX=0.145;exitY=0;exitDx=0;exitDy=3.1518272899396758;exitPerimeter=0;entryX=0.831;entryY=0.412;entryDx=0;entryDy=0;entryPerimeter=0;" edge="1" parent="1">
          <mxGeometry width="50" height="50" relative="1" as="geometry">
            <mxPoint x="1210.9339543013555" y="505.9788850047828" as="sourcePoint" />
            <mxPoint x="1239.0636841151752" y="505.48103041705065" as="targetPoint" />
          </mxGeometry>
        </mxCell>
        <mxCell id="lTQVsCQpXb44fQlqmLNo-181" value="" style="endArrow=classic;startArrow=classic;html=1;rounded=0;fontSize=16;exitX=0.145;exitY=0;exitDx=0;exitDy=3.1518272899396758;exitPerimeter=0;entryX=0.831;entryY=0.412;entryDx=0;entryDy=0;entryPerimeter=0;" edge="1" parent="1">
          <mxGeometry width="50" height="50" relative="1" as="geometry">
            <mxPoint x="1260.0039543013554" y="505.9788850047828" as="sourcePoint" />
            <mxPoint x="1288.1336841151751" y="505.48103041705065" as="targetPoint" />
          </mxGeometry>
        </mxCell>
        <mxCell id="lTQVsCQpXb44fQlqmLNo-182" value="" style="endArrow=classic;startArrow=classic;html=1;rounded=0;fontSize=16;exitX=0.145;exitY=0;exitDx=0;exitDy=3.1518272899396758;exitPerimeter=0;entryX=0.831;entryY=0.412;entryDx=0;entryDy=0;entryPerimeter=0;" edge="1" parent="1">
          <mxGeometry width="50" height="50" relative="1" as="geometry">
            <mxPoint x="1160.0039543013554" y="573.9988850047828" as="sourcePoint" />
            <mxPoint x="1188.1336841151751" y="573.5010304170506" as="targetPoint" />
          </mxGeometry>
        </mxCell>
        <mxCell id="lTQVsCQpXb44fQlqmLNo-183" value="" style="endArrow=classic;startArrow=classic;html=1;rounded=0;fontSize=16;exitX=0.145;exitY=0;exitDx=0;exitDy=3.1518272899396758;exitPerimeter=0;entryX=0.831;entryY=0.412;entryDx=0;entryDy=0;entryPerimeter=0;" edge="1" parent="1">
          <mxGeometry width="50" height="50" relative="1" as="geometry">
            <mxPoint x="1210.9339543013555" y="573.9988850047828" as="sourcePoint" />
            <mxPoint x="1239.0636841151752" y="573.5010304170506" as="targetPoint" />
          </mxGeometry>
        </mxCell>
        <mxCell id="lTQVsCQpXb44fQlqmLNo-184" value="" style="endArrow=classic;startArrow=classic;html=1;rounded=0;fontSize=16;exitX=0.145;exitY=0;exitDx=0;exitDy=3.1518272899396758;exitPerimeter=0;entryX=0.831;entryY=0.412;entryDx=0;entryDy=0;entryPerimeter=0;" edge="1" parent="1">
          <mxGeometry width="50" height="50" relative="1" as="geometry">
            <mxPoint x="1260.0039543013554" y="573.9988850047828" as="sourcePoint" />
            <mxPoint x="1288.1336841151751" y="573.5010304170506" as="targetPoint" />
          </mxGeometry>
        </mxCell>
        <mxCell id="lTQVsCQpXb44fQlqmLNo-185" value="" style="endArrow=classic;startArrow=classic;html=1;rounded=0;fontSize=16;entryX=1;entryY=0;entryDx=0;entryDy=10.868369965309228;entryPerimeter=0;dashed=1;" edge="1" parent="1" target="lTQVsCQpXb44fQlqmLNo-158">
          <mxGeometry width="50" height="50" relative="1" as="geometry">
            <mxPoint x="1150" y="344.94" as="sourcePoint" />
            <mxPoint x="1200" y="294.94" as="targetPoint" />
          </mxGeometry>
        </mxCell>
        <mxCell id="lTQVsCQpXb44fQlqmLNo-186" value="" style="endArrow=classic;startArrow=classic;html=1;rounded=0;fontSize=16;entryX=1;entryY=0;entryDx=0;entryDy=10.868369965309228;entryPerimeter=0;dashed=1;" edge="1" parent="1">
          <mxGeometry width="50" height="50" relative="1" as="geometry">
            <mxPoint x="1200" y="346.4599999999999" as="sourcePoint" />
            <mxPoint x="1241.8187188052298" y="302.9012811947699" as="targetPoint" />
          </mxGeometry>
        </mxCell>
        <mxCell id="lTQVsCQpXb44fQlqmLNo-187" value="" style="endArrow=classic;startArrow=classic;html=1;rounded=0;fontSize=16;entryX=1;entryY=0;entryDx=0;entryDy=10.868369965309228;entryPerimeter=0;dashed=1;" edge="1" parent="1">
          <mxGeometry width="50" height="50" relative="1" as="geometry">
            <mxPoint x="1249" y="345.97999999999996" as="sourcePoint" />
            <mxPoint x="1290.8187188052298" y="302.42128119476996" as="targetPoint" />
          </mxGeometry>
        </mxCell>
        <mxCell id="lTQVsCQpXb44fQlqmLNo-188" value="" style="endArrow=classic;startArrow=classic;html=1;rounded=0;fontSize=16;entryX=1;entryY=0;entryDx=0;entryDy=10.868369965309228;entryPerimeter=0;dashed=1;" edge="1" parent="1">
          <mxGeometry width="50" height="50" relative="1" as="geometry">
            <mxPoint x="1148.03" y="556.26" as="sourcePoint" />
            <mxPoint x="1189.8487188052297" y="512.70128119477" as="targetPoint" />
          </mxGeometry>
        </mxCell>
        <mxCell id="lTQVsCQpXb44fQlqmLNo-189" value="" style="endArrow=classic;startArrow=classic;html=1;rounded=0;fontSize=16;entryX=1;entryY=0;entryDx=0;entryDy=10.868369965309228;entryPerimeter=0;dashed=1;" edge="1" parent="1">
          <mxGeometry width="50" height="50" relative="1" as="geometry">
            <mxPoint x="1199" y="557.26" as="sourcePoint" />
            <mxPoint x="1240.8187188052298" y="513.70128119477" as="targetPoint" />
          </mxGeometry>
        </mxCell>
        <mxCell id="lTQVsCQpXb44fQlqmLNo-190" value="" style="endArrow=classic;startArrow=classic;html=1;rounded=0;fontSize=16;entryX=1;entryY=0;entryDx=0;entryDy=10.868369965309228;entryPerimeter=0;dashed=1;" edge="1" parent="1">
          <mxGeometry width="50" height="50" relative="1" as="geometry">
            <mxPoint x="1250" y="560.06" as="sourcePoint" />
            <mxPoint x="1291.8187188052298" y="516.50128119477" as="targetPoint" />
          </mxGeometry>
        </mxCell>
        <mxCell id="lTQVsCQpXb44fQlqmLNo-191" value="" style="endArrow=classic;startArrow=classic;html=1;rounded=0;fontSize=16;entryX=0.855;entryY=0;entryDx=0;entryDy=3.1518272899396758;entryPerimeter=0;dashed=1;exitX=0;exitY=0;exitDx=0;exitDy=29.09581501734538;exitPerimeter=0;" edge="1" parent="1" source="lTQVsCQpXb44fQlqmLNo-166" target="lTQVsCQpXb44fQlqmLNo-157">
          <mxGeometry width="50" height="50" relative="1" as="geometry">
            <mxPoint x="1110" y="340.97999999999996" as="sourcePoint" />
            <mxPoint x="1151.8187188052298" y="297.42128119476996" as="targetPoint" />
          </mxGeometry>
        </mxCell>
        <mxCell id="lTQVsCQpXb44fQlqmLNo-192" value="" style="endArrow=classic;startArrow=classic;html=1;rounded=0;fontSize=16;entryX=0.855;entryY=0;entryDx=0;entryDy=3.1518272899396758;entryPerimeter=0;dashed=1;exitX=0;exitY=0;exitDx=0;exitDy=29.09581501734538;exitPerimeter=0;" edge="1" parent="1">
          <mxGeometry width="50" height="50" relative="1" as="geometry">
            <mxPoint x="1294.9775311947694" y="340.98496880523044" as="sourcePoint" />
            <mxPoint x="1250.0038850047824" y="306.1689543013557" as="targetPoint" />
          </mxGeometry>
        </mxCell>
        <mxCell id="lTQVsCQpXb44fQlqmLNo-193" value="" style="endArrow=classic;startArrow=classic;html=1;rounded=0;fontSize=16;entryX=0.855;entryY=0;entryDx=0;entryDy=3.1518272899396758;entryPerimeter=0;dashed=1;exitX=0;exitY=0;exitDx=0;exitDy=29.09581501734538;exitPerimeter=0;" edge="1" parent="1">
          <mxGeometry width="50" height="50" relative="1" as="geometry">
            <mxPoint x="1243.9775311947697" y="338.5049688052304" as="sourcePoint" />
            <mxPoint x="1199.0038850047822" y="303.6889543013557" as="targetPoint" />
          </mxGeometry>
        </mxCell>
        <mxCell id="lTQVsCQpXb44fQlqmLNo-194" value="" style="endArrow=classic;startArrow=classic;html=1;rounded=0;fontSize=16;entryX=0.855;entryY=0;entryDx=0;entryDy=3.1518272899396758;entryPerimeter=0;dashed=1;exitX=0;exitY=0;exitDx=0;exitDy=29.09581501734538;exitPerimeter=0;" edge="1" parent="1">
          <mxGeometry width="50" height="50" relative="1" as="geometry">
            <mxPoint x="1190.9775311947697" y="550.8849688052304" as="sourcePoint" />
            <mxPoint x="1146.0038850047822" y="516.0689543013557" as="targetPoint" />
          </mxGeometry>
        </mxCell>
        <mxCell id="lTQVsCQpXb44fQlqmLNo-195" value="" style="endArrow=classic;startArrow=classic;html=1;rounded=0;fontSize=16;entryX=0.855;entryY=0;entryDx=0;entryDy=3.1518272899396758;entryPerimeter=0;dashed=1;exitX=0;exitY=0;exitDx=0;exitDy=29.09581501734538;exitPerimeter=0;" edge="1" parent="1">
          <mxGeometry width="50" height="50" relative="1" as="geometry">
            <mxPoint x="1240.9775311947697" y="550.8849688052304" as="sourcePoint" />
            <mxPoint x="1196.0038850047822" y="516.0689543013557" as="targetPoint" />
          </mxGeometry>
        </mxCell>
        <mxCell id="lTQVsCQpXb44fQlqmLNo-196" value="" style="endArrow=classic;startArrow=classic;html=1;rounded=0;fontSize=16;entryX=0.855;entryY=0;entryDx=0;entryDy=3.1518272899396758;entryPerimeter=0;dashed=1;exitX=0;exitY=0;exitDx=0;exitDy=29.09581501734538;exitPerimeter=0;" edge="1" parent="1">
          <mxGeometry width="50" height="50" relative="1" as="geometry">
            <mxPoint x="1286.9775311947697" y="550.1549688052304" as="sourcePoint" />
            <mxPoint x="1242.0038850047822" y="515.3389543013557" as="targetPoint" />
          </mxGeometry>
        </mxCell>
        <mxCell id="lTQVsCQpXb44fQlqmLNo-197" value="" style="endArrow=classic;startArrow=classic;html=1;rounded=0;fontSize=16;entryX=0.5;entryY=0;entryDx=0;entryDy=0;entryPerimeter=0;dashed=1;exitX=0;exitY=0;exitDx=0;exitDy=10.868369965309228;exitPerimeter=0;" edge="1" parent="1" source="lTQVsCQpXb44fQlqmLNo-168" target="lTQVsCQpXb44fQlqmLNo-160">
          <mxGeometry width="50" height="50" relative="1" as="geometry">
            <mxPoint x="1347.0075311947696" y="340.1449688052304" as="sourcePoint" />
            <mxPoint x="1302.0338850047822" y="305.3289543013557" as="targetPoint" />
          </mxGeometry>
        </mxCell>
        <mxCell id="lTQVsCQpXb44fQlqmLNo-198" value="" style="endArrow=classic;startArrow=classic;html=1;rounded=0;fontSize=16;entryX=0.5;entryY=0;entryDx=0;entryDy=0;entryPerimeter=0;dashed=1;exitX=0;exitY=0;exitDx=0;exitDy=10.868369965309228;exitPerimeter=0;" edge="1" parent="1">
          <mxGeometry width="50" height="50" relative="1" as="geometry">
            <mxPoint x="1130.1062811947695" y="334.5037188052304" as="sourcePoint" />
            <mxPoint x="1130.0025981029144" y="285.47759810291427" as="targetPoint" />
          </mxGeometry>
        </mxCell>
        <mxCell id="lTQVsCQpXb44fQlqmLNo-199" value="" style="endArrow=classic;startArrow=classic;html=1;rounded=0;fontSize=16;entryX=0.5;entryY=0;entryDx=0;entryDy=0;entryPerimeter=0;dashed=1;exitX=0;exitY=0;exitDx=0;exitDy=10.868369965309228;exitPerimeter=0;" edge="1" parent="1">
          <mxGeometry width="50" height="50" relative="1" as="geometry">
            <mxPoint x="1302.1362811947695" y="565.5237188052304" as="sourcePoint" />
            <mxPoint x="1302.0325981029143" y="516.4975981029143" as="targetPoint" />
          </mxGeometry>
        </mxCell>
        <mxCell id="lTQVsCQpXb44fQlqmLNo-200" value="" style="endArrow=classic;startArrow=classic;html=1;rounded=0;fontSize=16;entryX=0.5;entryY=0;entryDx=0;entryDy=0;entryPerimeter=0;dashed=1;exitX=0;exitY=0;exitDx=0;exitDy=10.868369965309228;exitPerimeter=0;" edge="1" parent="1">
          <mxGeometry width="50" height="50" relative="1" as="geometry">
            <mxPoint x="1129.3862811947695" y="549.0237188052304" as="sourcePoint" />
            <mxPoint x="1129.2825981029143" y="499.99759810291425" as="targetPoint" />
          </mxGeometry>
        </mxCell>
        <mxCell id="lTQVsCQpXb44fQlqmLNo-201" value="" style="curved=1;endArrow=classic;html=1;rounded=0;fontSize=16;entryX=0.145;entryY=1;entryDx=0;entryDy=-3.1518272899396758;entryPerimeter=0;startArrow=classicThin;startFill=1;" edge="1" parent="1" target="lTQVsCQpXb44fQlqmLNo-160">
          <mxGeometry width="50" height="50" relative="1" as="geometry">
            <mxPoint x="1130" y="267" as="sourcePoint" />
            <mxPoint x="1230" y="280" as="targetPoint" />
            <Array as="points">
              <mxPoint x="1170" y="250" />
              <mxPoint x="1240" y="250" />
            </Array>
          </mxGeometry>
        </mxCell>
        <mxCell id="lTQVsCQpXb44fQlqmLNo-202" value="" style="curved=1;endArrow=classic;html=1;rounded=0;fontSize=16;entryX=0.145;entryY=1;entryDx=0;entryDy=-3.1518272899396758;entryPerimeter=0;startArrow=classicThin;startFill=1;" edge="1" parent="1" target="lTQVsCQpXb44fQlqmLNo-159">
          <mxGeometry width="50" height="50" relative="1" as="geometry">
            <mxPoint x="1127.5" y="267" as="sourcePoint" />
            <mxPoint x="1232.4961149952169" y="264.40104569864445" as="targetPoint" />
            <Array as="points">
              <mxPoint x="1190" y="247" />
            </Array>
          </mxGeometry>
        </mxCell>
        <mxCell id="lTQVsCQpXb44fQlqmLNo-203" value="" style="curved=1;endArrow=classic;html=1;rounded=0;fontSize=16;entryX=0.291;entryY=0.938;entryDx=0;entryDy=0;entryPerimeter=0;startArrow=classicThin;startFill=1;" edge="1" parent="1" target="lTQVsCQpXb44fQlqmLNo-164">
          <mxGeometry width="50" height="50" relative="1" as="geometry">
            <mxPoint x="1130" y="479.44" as="sourcePoint" />
            <mxPoint x="1282.4961149952169" y="476.84104569864434" as="targetPoint" />
            <Array as="points">
              <mxPoint x="1170" y="459.44" />
              <mxPoint x="1240" y="459.44" />
            </Array>
          </mxGeometry>
        </mxCell>
        <mxCell id="lTQVsCQpXb44fQlqmLNo-204" value="" style="curved=1;endArrow=classic;html=1;rounded=0;fontSize=16;entryX=0.145;entryY=1;entryDx=0;entryDy=-3.1518272899396758;entryPerimeter=0;startArrow=classicThin;startFill=1;" edge="1" parent="1">
          <mxGeometry width="50" height="50" relative="1" as="geometry">
            <mxPoint x="1130" y="479.44" as="sourcePoint" />
            <mxPoint x="1234.9961149952169" y="479.84104569864445" as="targetPoint" />
            <Array as="points">
              <mxPoint x="1192.5" y="459.44" />
            </Array>
          </mxGeometry>
        </mxCell>
        <mxCell id="lTQVsCQpXb44fQlqmLNo-205" value="" style="curved=1;endArrow=classic;html=1;rounded=0;fontSize=16;startArrow=classicThin;startFill=1;exitX=0.855;exitY=0;exitDx=0;exitDy=3.1518272899396758;exitPerimeter=0;" edge="1" parent="1" source="lTQVsCQpXb44fQlqmLNo-165">
          <mxGeometry width="50" height="50" relative="1" as="geometry">
            <mxPoint x="1172.03" y="369.7" as="sourcePoint" />
            <mxPoint x="1302.03" y="369.7" as="targetPoint" />
            <Array as="points">
              <mxPoint x="1202.03" y="390.5" />
              <mxPoint x="1272.03" y="390.5" />
            </Array>
          </mxGeometry>
        </mxCell>
        <mxCell id="lTQVsCQpXb44fQlqmLNo-206" value="" style="curved=1;endArrow=classic;html=1;rounded=0;fontSize=16;startArrow=classicThin;startFill=1;exitX=0.855;exitY=0;exitDx=0;exitDy=3.1518272899396758;exitPerimeter=0;" edge="1" parent="1">
          <mxGeometry width="50" height="50" relative="1" as="geometry">
            <mxPoint x="1149.7538850047824" y="587.3589543013559" as="sourcePoint" />
            <mxPoint x="1302.2499999999998" y="586" as="targetPoint" />
            <Array as="points">
              <mxPoint x="1202.25" y="606.8" />
              <mxPoint x="1272.25" y="606.8" />
            </Array>
          </mxGeometry>
        </mxCell>
        <mxCell id="lTQVsCQpXb44fQlqmLNo-207" value="" style="curved=1;endArrow=classic;html=1;rounded=0;fontSize=16;startArrow=classicThin;startFill=1;exitX=0.855;exitY=0;exitDx=0;exitDy=3.1518272899396758;exitPerimeter=0;entryX=0.5;entryY=0;entryDx=0;entryDy=0;entryPerimeter=0;" edge="1" parent="1" source="lTQVsCQpXb44fQlqmLNo-166" target="lTQVsCQpXb44fQlqmLNo-168">
          <mxGeometry width="50" height="50" relative="1" as="geometry">
            <mxPoint x="1202.292598102914" y="366.75759810291447" as="sourcePoint" />
            <mxPoint x="1295" y="373" as="targetPoint" />
            <Array as="points">
              <mxPoint x="1262.03" y="393.5" />
            </Array>
          </mxGeometry>
        </mxCell>
        <mxCell id="lTQVsCQpXb44fQlqmLNo-208" value="" style="curved=1;endArrow=classic;html=1;rounded=0;fontSize=16;startArrow=classicThin;startFill=1;entryX=0.855;entryY=0;entryDx=0;entryDy=3.1518272899396758;entryPerimeter=0;" edge="1" parent="1" target="lTQVsCQpXb44fQlqmLNo-172">
          <mxGeometry width="50" height="50" relative="1" as="geometry">
            <mxPoint x="1200" y="586" as="sourcePoint" />
            <mxPoint x="1294.8925981029142" y="579.9975981029145" as="targetPoint" />
            <Array as="points">
              <mxPoint x="1249.6299999999999" y="605.74" />
            </Array>
          </mxGeometry>
        </mxCell>
        <mxCell id="lTQVsCQpXb44fQlqmLNo-209" value="hetero ATT" style="text;html=1;align=center;verticalAlign=middle;whiteSpace=wrap;rounded=0;fontSize=16;fillColor=default;" vertex="1" parent="1">
          <mxGeometry x="1176.03" y="307" width="83.97" height="18.75" as="geometry" />
        </mxCell>
        <mxCell id="lTQVsCQpXb44fQlqmLNo-211" value="hetero ATT" style="text;html=1;align=center;verticalAlign=middle;whiteSpace=wrap;rounded=0;fontSize=16;fillColor=default;" vertex="1" parent="1">
          <mxGeometry x="1168.06" y="523.37" width="83.97" height="18.75" as="geometry" />
        </mxCell>
        <mxCell id="lTQVsCQpXb44fQlqmLNo-212" value="" style="shape=cylinder3;whiteSpace=wrap;html=1;boundedLbl=1;backgroundOutline=1;size=10.868369965309228;fontSize=16;strokeColor=default;strokeWidth=1;fillColor=#FFE98F;gradientColor=#90ADF0;gradientDirection=north;rotation=135;" vertex="1" parent="1">
          <mxGeometry x="1370" y="288.46000000000004" width="22.03" height="46.04" as="geometry" />
        </mxCell>
        <mxCell id="lTQVsCQpXb44fQlqmLNo-213" value="" style="shape=cylinder3;whiteSpace=wrap;html=1;boundedLbl=1;backgroundOutline=1;size=10.868369965309228;fontSize=16;strokeColor=default;strokeWidth=1;fillColor=#FFE98F;gradientColor=#90ADF0;gradientDirection=north;rotation=135;" vertex="1" parent="1">
          <mxGeometry x="1370" y="513.5" width="22.03" height="46.04" as="geometry" />
        </mxCell>
        <mxCell id="lTQVsCQpXb44fQlqmLNo-214" value="stack&lt;br&gt;node" style="text;html=1;strokeColor=none;fillColor=none;align=center;verticalAlign=middle;whiteSpace=wrap;rounded=0;fontSize=16;" vertex="1" parent="1">
          <mxGeometry x="1392.03" y="240" width="60" height="40" as="geometry" />
        </mxCell>
        <mxCell id="lTQVsCQpXb44fQlqmLNo-215" value="stack&lt;br&gt;node" style="text;html=1;strokeColor=none;fillColor=none;align=center;verticalAlign=middle;whiteSpace=wrap;rounded=0;fontSize=16;" vertex="1" parent="1">
          <mxGeometry x="1402.03" y="455.52" width="60" height="40.56" as="geometry" />
        </mxCell>
        <mxCell id="lTQVsCQpXb44fQlqmLNo-216" value="" style="endArrow=classic;html=1;rounded=0;fontSize=16;entryX=0.5;entryY=1;entryDx=0;entryDy=0;entryPerimeter=0;exitX=1;exitY=0.25;exitDx=0;exitDy=0;" edge="1" parent="1" source="lTQVsCQpXb44fQlqmLNo-153" target="lTQVsCQpXb44fQlqmLNo-212">
          <mxGeometry width="50" height="50" relative="1" as="geometry">
            <mxPoint x="1210" y="440" as="sourcePoint" />
            <mxPoint x="1260" y="390" as="targetPoint" />
          </mxGeometry>
        </mxCell>
        <mxCell id="lTQVsCQpXb44fQlqmLNo-217" value="" style="endArrow=classic;html=1;rounded=0;fontSize=16;entryX=1;entryY=0.5;entryDx=0;entryDy=0;entryPerimeter=0;exitX=1;exitY=0.75;exitDx=0;exitDy=0;" edge="1" parent="1" source="lTQVsCQpXb44fQlqmLNo-154" target="lTQVsCQpXb44fQlqmLNo-212">
          <mxGeometry width="50" height="50" relative="1" as="geometry">
            <mxPoint x="1350" y="282.5" as="sourcePoint" />
            <mxPoint x="1374.7374018970854" y="305.2024018970859" as="targetPoint" />
          </mxGeometry>
        </mxCell>
        <mxCell id="lTQVsCQpXb44fQlqmLNo-218" value="" style="endArrow=classic;html=1;rounded=0;fontSize=16;entryX=0.145;entryY=1;entryDx=0;entryDy=-3.1518272899396758;entryPerimeter=0;exitX=1;exitY=0.25;exitDx=0;exitDy=0;" edge="1" parent="1" source="lTQVsCQpXb44fQlqmLNo-155" target="lTQVsCQpXb44fQlqmLNo-213">
          <mxGeometry width="50" height="50" relative="1" as="geometry">
            <mxPoint x="1360" y="292.5" as="sourcePoint" />
            <mxPoint x="1384.7374018970854" y="315.2024018970859" as="targetPoint" />
          </mxGeometry>
        </mxCell>
        <mxCell id="lTQVsCQpXb44fQlqmLNo-219" value="" style="endArrow=classic;html=1;rounded=0;fontSize=16;entryX=1;entryY=0.5;entryDx=0;entryDy=0;entryPerimeter=0;exitX=1;exitY=0.5;exitDx=0;exitDy=0;" edge="1" parent="1" source="lTQVsCQpXb44fQlqmLNo-156" target="lTQVsCQpXb44fQlqmLNo-213">
          <mxGeometry width="50" height="50" relative="1" as="geometry">
            <mxPoint x="1350" y="497" as="sourcePoint" />
            <mxPoint x="1382.4961149952169" y="526.9410456986444" as="targetPoint" />
          </mxGeometry>
        </mxCell>
        <mxCell id="lTQVsCQpXb44fQlqmLNo-220" value="HS-GAL" style="text;html=1;strokeColor=none;fillColor=none;align=center;verticalAlign=middle;whiteSpace=wrap;rounded=0;fontSize=16;" vertex="1" parent="1">
          <mxGeometry x="1370" y="371.5" width="100" height="30" as="geometry" />
        </mxCell>
        <mxCell id="lTQVsCQpXb44fQlqmLNo-221" value="HS-GAL" style="text;html=1;strokeColor=none;fillColor=none;align=center;verticalAlign=middle;whiteSpace=wrap;rounded=0;fontSize=16;" vertex="1" parent="1">
          <mxGeometry x="1372.03" y="590" width="100" height="30" as="geometry" />
        </mxCell>
        <mxCell id="lTQVsCQpXb44fQlqmLNo-222" value="Text" style="text;html=1;strokeColor=none;fillColor=none;align=center;verticalAlign=middle;whiteSpace=wrap;rounded=0;fontSize=16;" vertex="1" parent="1">
          <mxGeometry x="902.03" y="640" width="60" height="30" as="geometry" />
        </mxCell>
        <mxCell id="lTQVsCQpXb44fQlqmLNo-223" value="Graph combine" style="text;html=1;strokeColor=none;fillColor=none;align=center;verticalAlign=middle;whiteSpace=wrap;rounded=0;fontSize=16;" vertex="1" parent="1">
          <mxGeometry x="842.03" y="409.48" width="60" height="30" as="geometry" />
        </mxCell>
        <mxCell id="lTQVsCQpXb44fQlqmLNo-226" value="Element-wise&lt;br&gt;maximum" style="text;html=1;strokeColor=none;fillColor=none;align=center;verticalAlign=middle;whiteSpace=wrap;rounded=0;fontSize=16;" vertex="1" parent="1">
          <mxGeometry x="1452.03" y="404.5" width="130" height="30" as="geometry" />
        </mxCell>
        <mxCell id="lTQVsCQpXb44fQlqmLNo-229" value="" style="endArrow=classic;html=1;rounded=0;fontSize=16;entryX=0.5;entryY=0;entryDx=0;entryDy=0;exitX=1;exitY=0.75;exitDx=0;exitDy=0;" edge="1" parent="1" source="lTQVsCQpXb44fQlqmLNo-151" target="lTQVsCQpXb44fQlqmLNo-226">
          <mxGeometry width="50" height="50" relative="1" as="geometry">
            <mxPoint x="1492.03" y="357" as="sourcePoint" />
            <mxPoint x="1542.03" y="307" as="targetPoint" />
          </mxGeometry>
        </mxCell>
        <mxCell id="lTQVsCQpXb44fQlqmLNo-230" value="" style="endArrow=classic;html=1;rounded=0;fontSize=16;entryX=0.5;entryY=1;entryDx=0;entryDy=0;exitX=1.002;exitY=0.373;exitDx=0;exitDy=0;exitPerimeter=0;" edge="1" parent="1" source="lTQVsCQpXb44fQlqmLNo-152" target="lTQVsCQpXb44fQlqmLNo-226">
          <mxGeometry width="50" height="50" relative="1" as="geometry">
            <mxPoint x="1480" y="368.625" as="sourcePoint" />
            <mxPoint x="1527.0299999999997" y="414.5" as="targetPoint" />
          </mxGeometry>
        </mxCell>
        <mxCell id="lTQVsCQpXb44fQlqmLNo-267" style="edgeStyle=orthogonalEdgeStyle;rounded=0;orthogonalLoop=1;jettySize=auto;html=1;exitX=1;exitY=0.5;exitDx=0;exitDy=0;entryX=0;entryY=0;entryDx=0;entryDy=215;entryPerimeter=0;fontSize=16;startArrow=none;startFill=0;" edge="1" parent="1" source="lTQVsCQpXb44fQlqmLNo-231" target="lTQVsCQpXb44fQlqmLNo-262">
          <mxGeometry relative="1" as="geometry" />
        </mxCell>
        <mxCell id="lTQVsCQpXb44fQlqmLNo-231" value="" style="rounded=1;whiteSpace=wrap;html=1;fontSize=16;strokeWidth=1;gradientDirection=east;dashed=1;" vertex="1" parent="1">
          <mxGeometry x="1620" y="255" width="130" height="329" as="geometry" />
        </mxCell>
        <mxCell id="lTQVsCQpXb44fQlqmLNo-232" value="" style="shape=cylinder3;whiteSpace=wrap;html=1;boundedLbl=1;backgroundOutline=1;size=10.868369965309228;fontSize=16;strokeColor=#10739e;strokeWidth=1;fillColor=#90ADF0;gradientDirection=east;rotation=135;" vertex="1" parent="1">
          <mxGeometry x="1700" y="316.46" width="22.03" height="46.04" as="geometry" />
        </mxCell>
        <mxCell id="lTQVsCQpXb44fQlqmLNo-233" value="" style="shape=cylinder3;whiteSpace=wrap;html=1;boundedLbl=1;backgroundOutline=1;size=10.868369965309228;fontSize=16;strokeColor=#10739e;strokeWidth=1;fillColor=#90ADF0;gradientDirection=east;rotation=135;" vertex="1" parent="1">
          <mxGeometry x="1700" y="379.48" width="22.03" height="46.04" as="geometry" />
        </mxCell>
        <mxCell id="lTQVsCQpXb44fQlqmLNo-234" value="" style="shape=cylinder3;whiteSpace=wrap;html=1;boundedLbl=1;backgroundOutline=1;size=10.868369965309228;fontSize=16;strokeColor=#10739e;strokeWidth=1;fillColor=#90ADF0;gradientDirection=east;rotation=135;" vertex="1" parent="1">
          <mxGeometry x="1700" y="442.5" width="22.03" height="46.04" as="geometry" />
        </mxCell>
        <mxCell id="lTQVsCQpXb44fQlqmLNo-235" value="" style="shape=cylinder3;whiteSpace=wrap;html=1;boundedLbl=1;backgroundOutline=1;size=10.868369965309228;fontSize=16;strokeColor=#10739e;strokeWidth=1;fillColor=#90ADF0;gradientDirection=east;rotation=135;" vertex="1" parent="1">
          <mxGeometry x="1700" y="505.46000000000004" width="22.03" height="46.04" as="geometry" />
        </mxCell>
        <mxCell id="lTQVsCQpXb44fQlqmLNo-236" value="" style="shape=cylinder3;whiteSpace=wrap;html=1;boundedLbl=1;backgroundOutline=1;size=10.868369965309228;fontSize=16;strokeColor=default;strokeWidth=1;fillColor=#FFE98F;gradientColor=#FFE98F;gradientDirection=east;rotation=135;" vertex="1" parent="1">
          <mxGeometry x="1650" y="286.46" width="22.03" height="46.04" as="geometry" />
        </mxCell>
        <mxCell id="lTQVsCQpXb44fQlqmLNo-237" value="" style="shape=cylinder3;whiteSpace=wrap;html=1;boundedLbl=1;backgroundOutline=1;size=10.868369965309228;fontSize=16;strokeColor=default;strokeWidth=1;fillColor=#FFE98F;gradientColor=#FFE98F;gradientDirection=east;rotation=135;" vertex="1" parent="1">
          <mxGeometry x="1650" y="346.46" width="22.03" height="46.04" as="geometry" />
        </mxCell>
        <mxCell id="lTQVsCQpXb44fQlqmLNo-238" value="" style="shape=cylinder3;whiteSpace=wrap;html=1;boundedLbl=1;backgroundOutline=1;size=10.868369965309228;fontSize=16;strokeColor=default;strokeWidth=1;fillColor=#FFE98F;gradientColor=#FFE98F;gradientDirection=east;rotation=135;" vertex="1" parent="1">
          <mxGeometry x="1650" y="404.48" width="22.03" height="46.04" as="geometry" />
        </mxCell>
        <mxCell id="lTQVsCQpXb44fQlqmLNo-239" value="" style="shape=cylinder3;whiteSpace=wrap;html=1;boundedLbl=1;backgroundOutline=1;size=10.868369965309228;fontSize=16;strokeColor=default;strokeWidth=1;fillColor=#FFE98F;gradientColor=#FFE98F;gradientDirection=east;rotation=135;" vertex="1" parent="1">
          <mxGeometry x="1650" y="465.46000000000004" width="22.03" height="46.04" as="geometry" />
        </mxCell>
        <mxCell id="lTQVsCQpXb44fQlqmLNo-259" value="" style="endArrow=classic;html=1;rounded=0;fontSize=16;" edge="1" parent="1" source="lTQVsCQpXb44fQlqmLNo-224">
          <mxGeometry width="50" height="50" relative="1" as="geometry">
            <mxPoint x="1750" y="470" as="sourcePoint" />
            <mxPoint x="1620" y="420" as="targetPoint" />
          </mxGeometry>
        </mxCell>
        <mxCell id="lTQVsCQpXb44fQlqmLNo-260" value="" style="shape=cylinder3;whiteSpace=wrap;html=1;boundedLbl=1;backgroundOutline=1;size=10.868369965309228;fontSize=16;strokeColor=default;strokeWidth=1;fillColor=#FFE98F;gradientColor=#90ADF0;gradientDirection=north;rotation=135;" vertex="1" parent="1">
          <mxGeometry x="1672.03" y="593.5" width="22.03" height="46.04" as="geometry" />
        </mxCell>
        <mxCell id="lTQVsCQpXb44fQlqmLNo-261" value="stack&lt;br&gt;node" style="text;html=1;strokeColor=none;fillColor=none;align=center;verticalAlign=middle;whiteSpace=wrap;rounded=0;fontSize=16;" vertex="1" parent="1">
          <mxGeometry x="1720" y="596.24" width="60" height="40.56" as="geometry" />
        </mxCell>
        <mxCell id="lTQVsCQpXb44fQlqmLNo-262" value="" style="shape=cube;whiteSpace=wrap;html=1;boundedLbl=1;backgroundOutline=1;darkOpacity=0.05;darkOpacity2=0.1;fontSize=16;strokeColor=#6c8ebf;strokeWidth=1;fillColor=#dae8fc;gradientDirection=north;size=10;" vertex="1" parent="1">
          <mxGeometry x="1800" y="200" width="280" height="440" as="geometry" />
        </mxCell>
        <mxCell id="lTQVsCQpXb44fQlqmLNo-263" value="" style="shape=cylinder3;whiteSpace=wrap;html=1;boundedLbl=1;backgroundOutline=1;size=10.868369965309228;fontSize=16;strokeColor=default;strokeWidth=1;fillColor=#FFE98F;gradientColor=#90ADF0;gradientDirection=north;rotation=135;" vertex="1" parent="1">
          <mxGeometry x="1950" y="337.5" width="22.03" height="46.04" as="geometry" />
        </mxCell>
        <mxCell id="lTQVsCQpXb44fQlqmLNo-264" value="" style="shape=cylinder3;whiteSpace=wrap;html=1;boundedLbl=1;backgroundOutline=1;size=10.868369965309228;fontSize=16;strokeColor=default;strokeWidth=1;fillColor=#FFE98F;gradientColor=#90ADF0;gradientDirection=north;rotation=135;" vertex="1" parent="1">
          <mxGeometry x="1950" y="459.44000000000005" width="22.03" height="46.04" as="geometry" />
        </mxCell>
        <mxCell id="lTQVsCQpXb44fQlqmLNo-265" value="" style="shape=cylinder3;whiteSpace=wrap;html=1;boundedLbl=1;backgroundOutline=1;size=10.868369965309228;fontSize=16;strokeColor=default;strokeWidth=1;fillColor=#FFE98F;gradientColor=#90ADF0;gradientDirection=north;rotation=135;" vertex="1" parent="1">
          <mxGeometry x="1950" y="547.46" width="22.03" height="46.04" as="geometry" />
        </mxCell>
        <mxCell id="lTQVsCQpXb44fQlqmLNo-269" value="node-wise&lt;br&gt;maximum and average" style="text;html=1;strokeColor=none;fillColor=none;align=center;verticalAlign=middle;whiteSpace=wrap;rounded=0;fontSize=16;" vertex="1" parent="1">
          <mxGeometry x="1800" y="390.02" width="140" height="62.5" as="geometry" />
        </mxCell>
        <mxCell id="lTQVsCQpXb44fQlqmLNo-271" value="" style="endArrow=classic;html=1;rounded=0;fontSize=16;entryX=1;entryY=0.5;entryDx=0;entryDy=0;entryPerimeter=0;exitX=0.677;exitY=0.015;exitDx=0;exitDy=0;exitPerimeter=0;" edge="1" parent="1" source="lTQVsCQpXb44fQlqmLNo-269" target="lTQVsCQpXb44fQlqmLNo-263">
          <mxGeometry width="50" height="50" relative="1" as="geometry">
            <mxPoint x="1910" y="390" as="sourcePoint" />
            <mxPoint x="2000" y="370" as="targetPoint" />
          </mxGeometry>
        </mxCell>
        <mxCell id="lTQVsCQpXb44fQlqmLNo-272" value="" style="endArrow=classic;html=1;rounded=0;fontSize=16;exitX=0.662;exitY=1.025;exitDx=0;exitDy=0;entryX=1;entryY=1;entryDx=0;entryDy=-10.868369965309228;entryPerimeter=0;exitPerimeter=0;" edge="1" parent="1" source="lTQVsCQpXb44fQlqmLNo-269" target="lTQVsCQpXb44fQlqmLNo-264">
          <mxGeometry width="50" height="50" relative="1" as="geometry">
            <mxPoint x="1950" y="420" as="sourcePoint" />
            <mxPoint x="2000" y="370" as="targetPoint" />
          </mxGeometry>
        </mxCell>
        <mxCell id="lTQVsCQpXb44fQlqmLNo-274" value="" style="endArrow=classic;html=1;rounded=0;fontSize=16;entryX=1;entryY=1;entryDx=0;entryDy=-10.868369965309228;entryPerimeter=0;exitX=0.048;exitY=0.899;exitDx=0;exitDy=0;exitPerimeter=0;" edge="1" parent="1" source="lTQVsCQpXb44fQlqmLNo-262" target="lTQVsCQpXb44fQlqmLNo-265">
          <mxGeometry width="50" height="50" relative="1" as="geometry">
            <mxPoint x="1845" y="595.48" as="sourcePoint" />
            <mxPoint x="1895" y="545.48" as="targetPoint" />
          </mxGeometry>
        </mxCell>
        <mxCell id="lTQVsCQpXb44fQlqmLNo-275" value="readout" style="text;html=1;strokeColor=none;fillColor=none;align=center;verticalAlign=middle;whiteSpace=wrap;rounded=0;fontSize=16;" vertex="1" parent="1">
          <mxGeometry x="2006.52" y="609.9999999999999" width="60" height="30" as="geometry" />
        </mxCell>
        <mxCell id="lTQVsCQpXb44fQlqmLNo-287" value="" style="edgeStyle=none;rounded=0;orthogonalLoop=1;jettySize=auto;html=1;fontSize=16;startArrow=none;startFill=0;endArrow=classic;endFill=1;" edge="1" parent="1" source="lTQVsCQpXb44fQlqmLNo-276" target="lTQVsCQpXb44fQlqmLNo-286">
          <mxGeometry relative="1" as="geometry" />
        </mxCell>
        <mxCell id="lTQVsCQpXb44fQlqmLNo-276" value="concatenate" style="text;html=1;strokeColor=none;fillColor=none;align=center;verticalAlign=middle;whiteSpace=wrap;rounded=0;fontSize=16;" vertex="1" parent="1">
          <mxGeometry x="1982.03" y="409.5" width="108.98" height="30" as="geometry" />
        </mxCell>
        <mxCell id="lTQVsCQpXb44fQlqmLNo-277" value="" style="endArrow=classic;html=1;rounded=0;fontSize=16;exitX=1.011;exitY=0.542;exitDx=0;exitDy=0;exitPerimeter=0;" edge="1" parent="1" source="lTQVsCQpXb44fQlqmLNo-269" target="lTQVsCQpXb44fQlqmLNo-276">
          <mxGeometry width="50" height="50" relative="1" as="geometry">
            <mxPoint x="1950" y="420" as="sourcePoint" />
            <mxPoint x="2000" y="370" as="targetPoint" />
          </mxGeometry>
        </mxCell>
        <mxCell id="lTQVsCQpXb44fQlqmLNo-283" value="max graph operation" style="text;html=1;strokeColor=none;fillColor=none;align=center;verticalAlign=middle;whiteSpace=wrap;rounded=0;fontSize=16;" vertex="1" parent="1">
          <mxGeometry x="1402.03" y="614.48" width="170" height="30" as="geometry" />
        </mxCell>
        <mxCell id="lTQVsCQpXb44fQlqmLNo-285" value="" style="edgeStyle=none;rounded=0;orthogonalLoop=1;jettySize=auto;html=1;fontSize=16;startArrow=none;startFill=0;endArrow=classic;endFill=1;" edge="1" parent="1" source="lTQVsCQpXb44fQlqmLNo-284" target="lTQVsCQpXb44fQlqmLNo-1">
          <mxGeometry relative="1" as="geometry" />
        </mxCell>
        <mxCell id="lTQVsCQpXb44fQlqmLNo-284" value="Speech" style="text;html=1;strokeColor=none;fillColor=none;align=center;verticalAlign=middle;whiteSpace=wrap;rounded=0;fontSize=16;" vertex="1" parent="1">
          <mxGeometry x="140" y="434.5" width="60" height="30" as="geometry" />
        </mxCell>
        <mxCell id="lTQVsCQpXb44fQlqmLNo-286" value="" style="whiteSpace=wrap;html=1;fontSize=16;strokeColor=#6c8ebf;strokeWidth=1;fillColor=#dae8fc;gradientDirection=north;" vertex="1" parent="1">
          <mxGeometry x="2165.5" y="310" width="34.5" height="229" as="geometry" />
        </mxCell>
        <mxCell id="lTQVsCQpXb44fQlqmLNo-288" value="" style="ellipse;whiteSpace=wrap;html=1;aspect=fixed;fontSize=16;strokeWidth=1;gradientDirection=north;" vertex="1" parent="1">
          <mxGeometry x="2170" y="324.48" width="25.52" height="25.52" as="geometry" />
        </mxCell>
        <mxCell id="lTQVsCQpXb44fQlqmLNo-289" value="" style="ellipse;whiteSpace=wrap;html=1;aspect=fixed;fontSize=16;strokeWidth=1;gradientDirection=north;" vertex="1" parent="1">
          <mxGeometry x="2169.99" y="358.02000000000004" width="25.52" height="25.52" as="geometry" />
        </mxCell>
        <mxCell id="lTQVsCQpXb44fQlqmLNo-290" value="" style="ellipse;whiteSpace=wrap;html=1;aspect=fixed;fontSize=16;strokeWidth=1;gradientDirection=north;" vertex="1" parent="1">
          <mxGeometry x="2170" y="394.5" width="25.52" height="25.52" as="geometry" />
        </mxCell>
        <mxCell id="lTQVsCQpXb44fQlqmLNo-291" value="" style="ellipse;whiteSpace=wrap;html=1;aspect=fixed;fontSize=16;strokeWidth=1;gradientDirection=north;" vertex="1" parent="1">
          <mxGeometry x="2170" y="431.74" width="25.52" height="25.52" as="geometry" />
        </mxCell>
        <mxCell id="lTQVsCQpXb44fQlqmLNo-292" value="" style="ellipse;whiteSpace=wrap;html=1;aspect=fixed;fontSize=16;strokeWidth=1;gradientDirection=north;" vertex="1" parent="1">
          <mxGeometry x="2170" y="468.02000000000004" width="25.52" height="25.52" as="geometry" />
        </mxCell>
        <mxCell id="lTQVsCQpXb44fQlqmLNo-293" value="" style="ellipse;whiteSpace=wrap;html=1;aspect=fixed;fontSize=16;strokeWidth=1;gradientDirection=north;" vertex="1" parent="1">
          <mxGeometry x="2169.99" y="505.48" width="25.52" height="25.52" as="geometry" />
        </mxCell>
      </root>
    </mxGraphModel>
  </diagram>
</mxfile>
